<?xml version="1.0" standalone="no"?>
<!DOCTYPE svg PUBLIC "-//W3C//DTD SVG 1.1//EN" "http://www.w3.org/Graphics/SVG/1.1/DTD/svg11.dtd">
<svg xmlns="http://www.w3.org/2000/svg">
<defs>
<font id="icofont" horiz-adv-x="1000" >
<font-face font-family="IcoFont" font-weight="400" font-style="Regular" units-per-em="1000" ascent="850" descent="-150" />
<missing-glyph horiz-adv-x="1000" />
<glyph glyph-name="cogs" horiz-adv-x="1000" unicode="&#x13ae9;" d="M28 506c-16 2-28 16-28 33l0 37c0 16 12 30 28 33l44 8c5 19 13 37 23 54l-26 37c-10 13-8 32 4 43l26 27c11 11 30 13 43 3l37-25c17 9 35 17 54 22l8 44c3 16 17 28 33 28l37 0c17 0 31-12 34-28l7-44c19-5 38-13 55-22l36 25c14 10 32 8 43-4l27-26c11-11 13-30 4-43l-26-37c8-13 14-27 18-41-11-14-18-30-21-47l-3-20-11-5-17 12c-18 12-38 19-60 19-3 0-6-1-10-1-14 45-58 74-105 69-48-4-85-42-90-89-5-47 24-91 70-106-3-24 4-49 18-69l12-17c-2-3-3-7-5-11l-20-3c-17-3-33-10-47-21-14 4-28 10-41 18l-37-26c-13-9-32-7-43 4l-26 27c-12 11-14 29-4 43l26 36c-10 17-18 36-23 55l-44 8z" />
<glyph glyph-name="cogs" horiz-adv-x="1000" unicode="&#x13ae8;" d="M637 608c21 0 39-15 42-35l10-56c24-6 47-16 69-29l47 33c17 12 40 10 54-5l34-33c15-15 17-38 5-55l-33-47c13-21 22-45 29-69l56-10c20-4 35-21 35-42l0-47c0-20-15-38-35-42l-56-10c-7-24-16-47-29-69l33-46c12-17 10-41-5-56l-33-33c-15-15-38-17-55-5l-47 33c-22-13-45-22-70-29l-10-56c-3-20-21-35-42-35l-46 0c-21 0-39 15-42 35l-11 56c-24 7-47 16-69 29l-46-33c-17-12-40-10-55 5l-33 33c-15 15-17 38-5 56l33 46c-13 22-23 45-29 70l-56 10c-20 3-35 21-35 42l0 46c0 21 15 39 35 42l56 11c6 24 16 47 29 69l-33 46c-12 17-10 40 5 55l33 33c15 15 38 17 55 5l47-33c21 13 45 23 69 29l10 56c4 20 21 35 42 35l47 0z m-24-244c-70 0-127-57-127-127 0-71 57-128 127-128 71 0 128 57 128 128 0 70-57 127-128 127z" />
<glyph glyph-name="blood-test" horiz-adv-x="1000" unicode="&#xec0e;" d="M863 636c22 34 12 80-22 102l-159 101c-34 21-80 11-102-23l-27-43c0 0 0 0 0 0-34 16-74 5-95-27l-39-63c-21-32-13-74 15-97 0 0 0 0 0-1l-295-465c-19-29-14-66 8-90l-4-8c-34-52-18-122 34-155s121-17 155 35l4 7c32-10 67 2 86 31l295 466c1 0 1 0 1 0 33-16 74-5 94 27l40 63c20 32 13 74-16 97 0 0 0 0 0 0l27 43z m-50 32l-27-43c-23-37-13-62 2-72l9-5c7-5 9-14 5-21l-40-62c-4-7-13-9-20-5l-9 6c-16 10-42 8-66-29l-295-465c-4-7-14-9-20-5l-5 3c-14 9-37 9-56-21l-9-16c-16-24-48-31-73-16-25 16-32 49-16 73l9 15c19 30 10 51-4 60l-5 3c-7 4-9 13-4 20l295 466c23 37 13 61-2 71l-9 6c-7 4-9 14-4 20l39 63c5 7 14 9 21 4l9-5c15-10 42-9 65 28l27 43c5 7 14 9 21 5l158-101c7-4 9-14 4-20z m-198-171l-55 35c-13 8-32 4-41-9l-275-435c-9-13-5-32 9-41l2-1-45-71c-9-14-5-33 9-41 14-9 32-5 41 9l45 71 3-1c14-9 32-5 41 9l275 434c9 14 5 32-9 41z m-68-24l-259-400c-2-3-5-4-8-4-2 0-4 0-6 1-4 3-6 9-3 13l260 400c3 5 9 6 13 3 5-3 6-9 3-13z" />
<glyph glyph-name="blood" horiz-adv-x="1000" unicode="&#xec0f;" d="M801 778h-320c-4 19-11 37-23 51-13 14-29 21-48 21-24 0-45-9-59-27-10-12-16-28-20-45h-90c-14 0-26-11-26-26s12-26 26-26h87c0-8 1-16 1-22-86-1-156-72-156-158v-446c0-87 71-158 158-158h23v-48c0-6 4-13 10-15l32-14c5-2 14-2 20 0l36 13c6 2 10 9 10 15v49h23c88 0 158 71 158 158v446c0 86-69 157-156 158 0 6 0 14 0 22h288v-850c0-14 12-26 26-26 15 0 26 12 26 26v876c0 15-12 26-26 26z m-409 12c3 4 7 8 18 8 4 0 6-1 9-4 3-4 6-9 8-16h-41c1 5 3 9 6 12z m43-64c0-8 0-15-1-22h-52c-1 6-1 14-2 22h55z m-214-244c-10 0-18 8-18 18 0 96 79 175 176 175 9 0 17-8 17-17 0-10-8-18-17-18-78 0-141-63-141-140 0-10-8-18-17-18z m358-137v-216c0-68-51-124-115-124h-112c-63 0-115 56-115 124v216h342z" />
<glyph glyph-name="blood-drop" horiz-adv-x="1000" unicode="&#xec0d;" d="M501 850c14-92 53-175 100-254 31-51 63-101 94-152 39-65 77-131 96-205 39-147-25-292-157-358-184-91-404 25-433 229-10 69 5 134 32 197 33 77 79 146 123 217 44 70 87 141 116 220 13 34 21 70 29 106z m76-913c63-1 130 60 138 124 7 55-28 91-82 83-62-8-120-70-125-133-3-43 26-74 69-74z m-178 411c1 30-18 46-40 37-25-10-42-42-37-68 4-22 24-31 44-21 21 12 31 32 33 52z" />
<glyph glyph-name="medical-sign" horiz-adv-x="1000" unicode="&#xec27;" d="M934 818h-868c-36 0-66-29-66-66v-805c0-36 30-66 66-66h868c37 0 66 30 66 66v805c0 37-29 66-66 66z m-107-545c0-13-9-22-22-22h-184c-12 0-22-10-22-22v-184c0-13-10-22-22-22h-154c-12 0-22 9-22 22v184c0 12-10 22-22 22h-184c-12 0-22 9-22 22v154c0 12 10 22 22 22h184c12 0 22 10 22 22v184c0 12 10 22 22 22h154c12 0 22-10 22-22v-184c0-12 10-22 22-22h184c13 0 22-10 22-22v-154z" />
<glyph glyph-name="medicine" horiz-adv-x="1000" unicode="&#xef8e;" d="M834 500l-63 96c-5 7-8 18-8 25 0 7 2 13 5 13s6 7 6 15v124c0 8-6 15-15 15h-517c-8 0-15-7-15-15v-124c0-8 3-15 6-15 2 0 5-6 5-13 0-7-4-18-8-25l-64-96c-4-7-8-19-8-27v-546c0-8 7-15 15-15h655c8 0 14 7 14 15v546c0 8-3 20-8 27z m-130 254c0 4 3 8 7 8 5 0 8-4 8-8v-96c0-4-3-8-8-8-4 0-7 4-7 8v96z m-85 0c0 4 3 8 7 8 4 0 7-4 7-8v-96c0-4-3-8-7-8-4 0-7 4-7 8v96z m-86 0c0 4 4 8 8 8 4 0 7-4 7-8v-96c0-4-3-8-7-8-4 0-8 4-8 8v96z m-85 0c0 4 3 8 7 8 4 0 8-4 8-8v-96c0-4-4-8-8-8-4 0-7 4-7 8v96z m-85 0c0 4 3 8 7 8 4 0 7-4 7-8v-96c0-4-3-8-7-8-4 0-7 4-7 8v96z m-86 0c0 4 3 8 8 8 4 0 7-4 7-8v-96c0-4-3-8-7-8-4 0-8 4-8 8v96z m491-782h-536c-8 0-15 6-15 15v120c0 23 19 41 42 41h483c22 0 41-18 41-41v-120c0-8-7-15-15-15z m-238 328h46c3 0 5-3 5-6v-38c0-3-2-5-5-5h-46c-3 0-5-3-5-6v-46c0-3-3-5-6-5h-38c-3 0-5 2-5 5v46c0 3-3 6-6 6h-45c-4 0-6 2-6 5v38c0 3 2 6 6 6h45c3 0 6 2 6 5v46c0 3 2 5 5 5h38c3 0 6-2 6-5v-46c0-3 2-5 5-5z m211 92h-482c-23 0-42 14-42 32v31c0 8 4 20 9 27l63 96c5 7 8 19 8 27v14c0 8 7 15 15 15h376c9 0 15-7 15-15v-14c0-8 4-20 9-27l63-96c4-7 8-19 8-27v-31c0 0-19-32-42-32z" />
<glyph glyph-name="medical-sign-alt" horiz-adv-x="1000" unicode="&#xec26;" d="M1000 717c-1-3-1-5-2-8-3-15-8-29-16-42-8-14-18-26-33-35-10-5-21-9-32-11-18-2-35 0-52 3-26 6-51 16-75 27-27 13-52 28-76 43-13 7-25 15-38 21-9 4-18 7-27 8-16 2-30-2-41-15-8-8-13-18-17-30-2-6-4-13-6-20-1-4-3-8-5-12-5-8-12-12-22-13-2 0-4 0-6 0 0 2 1 2 2 2 8 3 13 9 16 17 3 8 3 16 3 24 0 7 0 13 0 20 0 9 0 19 2 29 2 8 6 14 12 20 11 8 23 13 36 15 16 3 32 1 48-2 24-5 46-13 68-23 13-6 25-12 38-18 24-11 49-18 75-22 18-2 36-3 54-2 29 1 57 7 83 20 4 2 8 4 11 6 0-1 0-1 0-2z m-462-434c4 1 8 1 13 2 11 3 22 7 32 12 3 1 3 1 4-2 3-11 5-23 4-34-1-18-8-33-20-46-11-12-25-20-41-26-4-2-8-3-13-4-1-1-2-1-2-3 0-10-1-20-2-31 0 0 1 0 1 0 0 0 0 0 0 0 7 3 12 8 14 15 1 6-1 11-6 14-1 0-1 0-2 1 1 1 2 1 3 1 7 2 15 5 22 8 3 2 7 4 11 7 2 1 2 1 3-2 7-14 7-28-1-41-5-11-13-18-23-24-6-4-13-7-20-9-3-1-3-1-3-4 0-8 0-16-1-25 0 0 0-1 1-2 7 2 11 12 7 18-1 3-2 5-4 6-1 1-2 2-2 3 1 1 2 1 3 1 7 2 13 5 19 8 2 2 2 2 4 0 11-11 13-23 8-37-5-14-14-23-27-30-3-2-6-3-9-4-1 0-1 0-1-2 0-10-1-20-1-30 0-1 0-1 1-2 5 4 7 9 7 15s-2 12-7 16c9 3 16 6 22 12 3-5 5-10 6-16 0-9-2-18-7-26-5-8-12-15-21-22-1-1-2-2-2-4 0-5 0-10 0-15 3 1 4 3 4 5 1 4 0 7-1 9-1 2-1 2 0 3 4 2 6 5 9 8 0 0 1 0 2 0 3-4 5-8 6-13 0-7-2-14-6-20-2-4-4-7-7-10-7-8-10-17-11-27-1-11-3-23-3-35 0-2 0-4-1-5 0 2-1 5-1 7 0 14-2 28-4 42-1 10-1 20-2 30-1 6-1 13-1 19 0 1 0 1 0 2-3 0-4-2-4-4-1-3-1-5 1-7 1-2 2-4 2-6 1-10 1-20 2-30 0 0 0 0 0 0-1 0-1 1-2 2-3 5-7 11-10 16-4 7-7 15-8 23-1 6 0 12 3 17 3 4 7 7 13 8 2 1 2 1 2 3 0 11 0 21 0 31 0 1 0 2-1 2-1 0-1 0-2-1-5-6-6-12-4-20 2-4 4-8 6-11-2-2-3-2-5-2-2-1-4-2-6-3-1-1-2-1-3 0-6 6-11 13-14 22-3 13 1 25 10 35 4 5 9 9 15 12 2 1 2 2 2 4 0 8 0 16-1 25 0 0 0 0 0 1-3-2-8-7-9-11-1-3 0-5 1-7 1-3 3-5 5-6 1-1 2-2 3-2-1-1-2-1-2-2-5-3-9-6-13-9-2-2-2-2-6-1-8 5-13 13-15 22-2 14 2 25 11 35 6 6 13 10 21 14 0 0 1 0 2 0 1 1 2 2 2 3-1 10-1 20-2 30 0 2 0 3-2 2-3 0-5-1-8-3-3-2-4-5-4-9 1-6 4-11 8-14 2-2 4-3 5-4 0-1-1-1-2-2-8-3-16-8-22-14-2-1-3-1-4 0-8 6-14 13-17 23-7 18-3 34 9 49 8 11 20 17 32 22 4 1 4 1 4 5-1 16-1 33-2 49 0 3 0 3-3 3-4 0-9 0-13-2-12-3-17-13-15-25 2-13 10-22 22-26 1-1 2-1 2-1 0-1-1-1-2-2-10-5-19-11-27-20-3-2-3-3-6-1-13 7-23 17-30 31-5 10-8 20-7 32 1 5 2 10 5 15 10 18 24 31 42 39 9 4 18 7 28 7 2 0 3 1 2 4 0 14-1 29-1 44-1 12-1 25-1 37-1 5-1 5-6 5-11 0-22-1-32-4-6-2-11-5-16-9-7-7-10-16-9-26 1-13 7-23 16-30 9-8 20-13 31-16l5-1c1-1 1-1 1-1-2 0-3-1-5-1-18-5-34-15-47-29-3-3-3-3-7-1-25 15-44 35-53 63-5 15-5 31 1 46 5 14 15 25 28 34 12 7 25 12 38 15 12 3 24 4 36 3 5 0 10 1 15 1 2 0 2 0 2 2 0 14-1 29-1 43 0 8-1 16-1 25 0 2-1 4-3 5-8 6-18 11-28 14-16 5-32 7-48 5-3 0-5 0-8 0 0 0 0 0 0 0 0 0 0 1 0 1 5 9 9 19 12 28 3 7 5 14 8 20 2 4 5 8 8 11 5 5 11 8 18 9 11 1 21-1 32-5 3-1 6-3 9-4 0 3-1 6-2 9-1 5-3 9-6 13l-5 9c-5 9-6 18-3 27 0 2 1 4 2 6 1 4 1 4-2 7-7 6-13 13-17 22-17 37 6 81 47 89 34 6 67-16 73-51 5-24-3-45-22-61 0 0-1-1-1-1-1-1-1-1-1-2 2-3 3-6 4-9 2-10 1-18-3-27-3-3-5-7-7-11-4-6-6-12-7-18 0-1 0-1 0-2 0 0 0 0 0 0 2 0 3 1 4 1 9 4 18 7 28 8 6 0 12 0 17-2 4-2 8-4 11-8 3-3 6-7 8-12 3-8 6-16 9-24 3-8 6-15 10-22 0 0 0-1 0-1-3 0-6 0-9 0-24 2-47-2-68-14-3-2-5-4-7-5-2-2-3-3-3-5 0-12-1-23-1-35 0-10-1-21-1-32 0 0 0-1 0-1 0-2 1-2 2-2 7 0 13-1 20-1 12 0 25 0 38 1s26 3 38 7c3 1 6 3 9 4 1 1 3 2 4 3 7 5 10 11 9 18-2 9-8 15-17 17-6 1-13 0-19-1-11-1-21-3-32-4-10-1-20-1-30 3-1 0-2 0-2 1 0 2 1 2 2 3 2 1 4 1 6 1 4 0 7 0 11 0 3 0 5 0 8 0 1 0 3 0 3 1 0 2-2 2-3 3-3 0-6 1-10 1-3 0-6 0-10 1-1 0-3 1-5 2 1 1 2 2 3 3 7 4 14 7 21 8 13 3 26 4 39 2 13-1 26-3 38-9 7-2 13-6 19-10 19-14 20-36 13-52-4-8-10-15-17-21-7-6-14-10-22-14-5-2-10-3-15-4-29-6-57-9-86-8-5 0-9 0-13 1-3 0-3 0-3-3-1-12-1-25-1-38-1-15-1-30-2-45 0-3 0-3 3-3 13 3 26 7 38 14 6 3 12 8 16 14 7 9 9 18 8 29-1 11-7 19-16 24l-4 2c0 0 0 0 0 0 1 1 1 1 2 1 23 0 45 4 67 10 2 1 3 1 3-1 6-9 9-18 10-28 2-18-3-35-12-50-11-20-26-36-47-46-15-7-31-12-47-15-7-1-13-2-20-2-3 0-3 0-3-3 0-16-1-33-1-49 0-1 0-1 0-2 0-1 0-1 1-1 3 0 5 0 8 1 14 5 22 14 24 29 1 8-2 15-9 20-1 1-2 1-2 2z m-538 435c1 0 2 0 3-1 21-11 45-19 69-22 20-3 40-3 61-2 34 4 66 13 97 28 20 9 41 19 63 27 14 5 28 9 43 11 15 3 30 3 45 1 11-3 21-7 30-14 9-7 13-15 15-26 2-11 1-21 1-32 0-6 0-13 0-19 1-5 1-11 3-16 3-8 8-15 17-18 0 0 1 0 1-1-9-3-20 2-26 9-2 4-4 8-6 12-2 7-4 14-6 20-3 10-7 20-14 28-6 9-14 16-25 19-9 2-18 2-27 0-10-3-20-7-30-12-12-6-23-13-35-20-24-15-48-29-74-41-21-10-42-18-64-23-14-4-29-6-43-6-18 1-35 4-50 14-14 9-24 21-31 35-9 15-14 32-17 49 0 0 0 0 0 0z m609-21c0 0 0 0 0 0 9 13 20 20 36 19 9-1 18-4 26-7 11-5 22-11 32-17 22-14 44-27 66-39 23-12 47-22 72-30 14-4 27-8 41-9 15-2 31-2 46 2 1 0 1 0 1 0 1 0 1 0 1 0 0-3-1-5-3-8-5-14-15-25-28-33-13-8-27-13-43-16-8-2-16-3-24-3-12 1-23 4-34 8-15 6-29 15-42 25-11 9-22 20-32 30-14 13-27 27-41 39-11 11-23 21-37 28-11 6-23 9-36 10-1 0-1 0-1 1z m-539-81c4 0 8-1 12-2 10-2 21-2 32-1 28 3 55 12 81 23 27 12 53 26 78 41 12 7 23 14 34 21 11 6 22 12 35 15 6 2 13 3 20 3 9-1 16-4 23-11 2-2 5-5 7-9-2 0-4 0-6 0-13-2-26-6-38-13-12-8-24-18-35-28-12-11-24-23-36-35-11-11-22-22-35-32-10-8-21-16-34-21-16-8-32-12-50-10-22 2-42 8-60 21-13 8-22 20-27 34 0 1-1 3-1 4z m523 43c3 10 6 19 9 27 1 2 2 3 5 3 12 0 24-4 35-10 12-6 22-13 32-22 10-9 20-18 29-28 15-15 30-30 46-43 14-12 30-22 47-29 13-5 27-8 42-8 3 0 7 1 10 1 1 0 1 0 2 0 0 0 0-1 0-1-7-10-16-19-26-26-9-5-18-9-28-8-8 0-15 2-21 5-12 6-21 13-31 21-14 12-27 26-40 40-13 15-27 29-42 43-10 8-20 16-32 23-9 5-19 10-30 11-1 1-2 1-3 1-1 0-2 0-4 0z m-443-109c2 0 4 0 5 0 18-2 35 1 52 8 15 6 29 16 43 26 15 13 29 27 43 41 13 13 25 26 39 37 10 8 21 15 32 21 10 4 20 6 30 6 2 0 3-1 4-3 3-8 6-16 8-25 1-2 1-2-2-2-7-1-14-3-21-6-13-5-24-12-34-21-15-11-28-25-41-39-14-14-27-28-40-41-10-9-20-19-32-26-7-4-15-8-23-10-12-2-23-1-33 5-9 5-16 12-23 19-2 3-5 6-7 10z m269 85c-4 0-7 0-10-1-12-3-21-9-29-17-8-7-14-16-20-24-7-11-14-23-21-34-5-9-11-18-17-26-4-5-9-9-13-13-13-10-26-13-41-8-7 2-17 7-22 11-1 1 0 1 0 1 15 11 28 23 40 36 16 16 30 33 47 48 10 11 21 20 34 29 10 6 21 11 32 14 3 0 6 1 9 1 1 0 2 0 2-2 2-5 5-10 9-15z m336-111c-1-1-1-1-1-1-8-6-17-11-27-13-12-2-22 0-31 7-6 4-12 9-16 15-7 8-13 18-19 27-7 12-14 24-22 35-6 9-13 18-21 26-9 7-18 12-30 14-2 1-4 1-7 2 3 3 5 6 7 9 0 1 1 3 2 5 0 2 2 2 3 2 6-1 12-2 17-4 12-4 23-11 33-18 13-10 24-21 35-32 13-13 25-27 38-40 12-12 24-24 38-34 0 0 1 0 1 0z m-300 3c-3-2-6-2-9-2-4-1-8-1-13-2-1 0-3 0-5-1 0 0-1-1-1-1 1-1 1-1 1-2 2 0 3 0 4 0 5 0 9 0 13 0 3 1 5 1 8 0 1-1 3-1 4-2 1-1 1-2-1-3-4-1-7-2-11-3-9-1-18-1-27 1-10 1-20 3-30 4-6 0-11 1-17-1-9-3-16-14-13-23 1-4 3-7 6-10 4-3 9-5 14-7 9-3 18-5 28-6 4-1 9-1 14-2 0 0 1 0 2 0-2-1-5-2-7-2-12-3-23-8-33-14-7-5-13-10-17-16-1-1-2-1-3-1-13 6-24 13-32 24-6 7-10 15-11 24-2 13 1 25 11 35 7 7 16 11 25 15 12 5 24 7 37 8 13 2 26 1 39-2 8-1 15-4 22-9 0 0 1-1 1-1 0 0 1 0 1-1z m-45 99c-9-10-13-23-17-36-3-7-6-14-9-21-2-4-5-8-8-11-6-6-13-8-21-7-3 0-7 1-10 2-1 1 0 1 0 1 8 13 15 26 24 38 5 8 11 16 19 22 6 6 13 10 21 12 0 0 1 0 1 0z m180 0c6-1 11-3 15-6 9-6 16-14 22-22 7-9 13-19 20-29 3-5 6-10 9-16-1-1-2-1-2-1-5-1-10-2-15-1-7 0-13 4-17 10-4 4-6 9-8 14-4 8-7 16-10 25-2 6-5 13-9 19-1 2-3 5-5 7z" />
<glyph glyph-name="unity-hand" horiz-adv-x="1000" unicode="&#xe826;" d="M191 667c-4 11 5 21 16 19 3 0 7-1 10-2 20-8 40-15 60-22 14-5 29-11 44-15 9-2 18-6 27-8 3-1 7-1 10 1 3 1 4 4 1 6-5 6-12 11-19 15-5 3-9 6-13 9-15 9-31 17-47 26l-21 11-8 5-13 7c-8 4-8 14-4 20 5 7 10 8 18 7 7-2 13-6 20-10 15-7 30-15 44-23 13-7 26-13 39-20 10-5 19-9 30-12 2 0 4-1 5 1 1 2 0 4-1 5-6 6-11 12-16 17-4 3-7 6-11 9-8 7-15 15-24 21-3 3-6 6-9 9-7 6-15 12-21 19-6 6-7 14-4 20 3 5 10 7 15 5 4-1 7-3 10-6 7-5 14-11 21-16 9-6 17-12 25-19 11-8 22-16 32-26 7-7 15-13 24-19 11-7 23-10 36-14 10-2 20-6 30-10 10-4 18-9 27-14 9-5 16-12 24-19 8-7 16-15 19-27 1-5 1-9 0-14-2-9-5-16-10-23-8-9-9-20-12-31-2-8-2-16-3-24-2-13-8-23-17-31-9-9-19-15-29-22-5-3-10-6-15-9-7-4-15-5-23-5-11-1-21-3-32-8-7-3-13-8-19-12-6-5-13-8-20-9-9-1-17-6-24-11-5-4-10-7-15-10-6-2-13 3-14 10-1 10 4 18 10 25 6 9 15 13 24 16 5 1 9 4 12 7 9 7 18 14 27 20 2 1 5 2 8 3 10 5 8 11 4 19-2 3-5 5-9 7-8 3-16 8-24 13-10 7-21 11-33 11-9 1-18 3-27 4-13 2-26 1-40 2-13 1-27 2-41 4-12 1-24 2-36 4-9 1-15 6-14 16 1 7 8 14 17 13 13 0 27 0 43-1 21 0 46-2 70-2 7-1 14 1 19 5 6 3 6 9 1 14-2 2-5 3-8 5-11 4-22 9-34 13-17 5-32 13-48 18-8 3-16 7-24 10-7 3-15 5-22 9-5 2-10 4-14 8-2 1-4 3-4 6z m251-469c-2 5-6 10-9 15-6 7-11 15-12 24-1 7-4 14-9 20-4 6-9 12-12 20-5 10-6 20-7 31-1 8-2 16-6 23-2 5-6 10-9 15-6 10-13 21-22 30-8 9-18 15-30 16-10 1-19 2-28 4-10 2-20 4-28 11-6 5-13 8-20 10-10 2-19 0-27-5-8-5-15-10-20-18-5-7-11-13-16-20-4-9-10-17-13-26-4-11-9-22-12-33-2-8-3-17-7-24-7-13-16-25-26-36-15-16-27-34-40-50-1-2-2-4-3-5-7-7-12-15-18-22-2-3-3-6-5-10-1-4 1-10 4-13 6-4 15-4 20 1 5 5 10 10 15 15 6 9 13 16 20 24 8 10 18 20 26 30 5 5 10 9 15 14 1 1 3 3 5 1s1-3 1-5c-2-10-6-19-10-28-8-13-14-27-22-41-8-14-15-29-23-44-3-6-8-13-9-20-2-8-1-13 6-17 7-5 18-4 21 5 1 3 2 5 4 7 3 6 7 11 9 16 6 12 13 23 19 35 5 12 13 23 20 34 2 4 4 7 6 10 4 7 8 13 14 18 3 2 5 1 7-2 1-2 1-6 0-8-2-10-5-20-8-30-7-21-14-43-23-64-3-8-5-17-9-26-2-6-5-13-7-20-2-12 3-18 16-19 4 0 7 1 10 4 3 4 5 9 7 13 6 15 12 29 17 44 7 17 14 34 20 51 3 11 8 21 12 31 2 4 3 8 6 12 5 5 11 5 15-2 4-5 5-11 5-18-1-25-3-49-3-71-1-16-1-29-1-42-1-1 0-3 0-5 2-8 8-12 16-13 7 0 12 7 13 13 2 13 3 25 4 38 2 13 3 26 4 40 1 13 0 27 2 40 1 9 4 17 4 26 0 13 4 25 11 35 6 8 10 16 14 25 1 3 4 6 7 7 7 4 13 7 18-3 1-3 2-6 3-9 6-8 12-17 19-25 4-3 6-8 8-13 3-9 7-18 15-25 8-5 16-10 26-9 6 0 12 7 10 13z m364-159c-5 3-10 6-15 8-7 3-14 6-22 9-8 3-16 7-24 10-16 5-31 13-47 18-11 3-21 8-32 12-4 2-8 3-11 6-5 5-5 10 1 14 5 4 12 6 19 5 24-1 49-2 74-2 12-1 25-1 38-2 4 0 8 1 12 4 8 5 10 20-1 24-3 2-7 2-10 3-11 1-21 2-32 3-14 1-27 3-40 4-14 1-28 0-41 2-9 1-17 3-26 4-12 0-23 3-33 10-9 5-18 11-28 15-4 2-7 6-9 11-2 6-1 10 5 13 3 1 6 2 9 4 9 6 18 12 26 20 4 3 8 5 12 7 10 3 19 7 25 15 6 8 10 15 10 25 0 9-8 13-16 10-5-3-9-6-14-9-7-5-14-10-24-11-7-1-13-4-19-8-5-5-11-9-18-13-10-5-22-7-33-7-8-1-16-2-23-6-6-2-10-6-15-9-11-7-21-14-30-22-9-8-14-18-16-30-1-8-2-16-3-25-3-11-4-22-12-31-5-7-9-15-10-23-1-5-1-9 0-14 3-12 11-20 19-27 8-7 15-14 24-19 9-4 17-10 26-13 11-4 21-9 32-11 12-3 24-7 35-14 9-6 17-12 25-19 10-10 21-18 32-27 8-6 17-13 26-20 10-6 18-15 29-20 5-2 12 1 15 6 3 6 2 14-3 19-6 6-11 11-17 16-5 3-8 8-13 11-9 6-16 14-24 21-8 7-17 15-24 23-2 2-4 4-5 6-1 3-1 4 2 4 1 0 3 0 4 0 10-2 19-6 28-11 13-7 27-14 40-21 14-8 29-15 44-23 7-3 13-8 21-10 8-1 12 0 17 7 5 7 4 17-6 21-2 0-3 1-4 2-11 8-24 13-35 20-18 10-35 19-52 29-3 2-6 4-9 6-7 4-13 9-19 15-3 3-2 5 1 7 3 1 6 1 9 0 10-2 20-5 30-8 21-7 43-15 64-23 9-3 17-5 26-9 7-3 14-6 21-7 5-1 10-1 13 4 4 4 6 10 4 16 0 2-2 4-3 5z m127 506c-7 4-16 4-21-2-6-6-11-11-16-17-3-5-8-8-11-13-6-9-14-16-21-24-7-8-15-17-23-24-2-2-4-4-6-5-3-1-4 0-4 3 0 1 0 2 0 3 2 10 6 20 11 29 7 13 14 26 21 39 8 14 15 30 23 45 3 6 8 12 9 20 2 8 1 13-6 17-7 5-18 4-21-6-1-2-2-4-3-6-3-5-7-11-10-17-6-12-13-24-19-36-6-11-13-21-19-32-2-3-4-5-6-9-4-7-9-13-15-19-2-2-5-2-6 1-2 3-2 6-1 10 2 9 5 19 8 28 8 24 17 47 25 71l9 26c2 5 4 10 5 16 2 11-8 20-20 17-2-1-4-2-5-4-3-4-6-8-8-13-6-14-12-29-17-44-6-17-14-33-20-51-4-12-9-23-14-35-1-3-2-6-5-8-4-5-10-4-14 1-4 6-5 12-5 19 1 24 3 49 3 75 0 11 1 24 1 36 0 2 0 4 0 7-2 8-8 12-15 13-8 0-13-7-14-13-1-7-2-14-3-22-2-18-4-37-5-56-1-13 0-26-2-39-1-9-3-17-4-26 0-15-5-28-13-40-5-6-8-12-11-19-1-4-4-7-7-9-7-4-14-7-19 4-1 2-2 5-3 8-6 9-13 17-20 26-3 3-5 7-7 12-3 9-7 18-15 25-8 5-15 10-25 9-8 0-13-8-11-14 3-5 6-10 10-15 5-7 10-15 11-24 1-7 4-13 9-19 5-8 11-15 14-23 3-10 5-19 5-29 1-8 2-16 6-23 3-5 6-9 9-14 7-11 13-21 22-30 8-9 18-15 31-16 8-1 16-2 24-4 12-2 23-5 33-12 5-5 11-7 18-9 10-3 19-1 27 4 12 7 21 18 29 29s15 22 20 35c4 11 9 22 11 34 3 12 7 23 14 34 5 9 11 17 18 24 10 10 19 21 27 32 6 8 13 16 19 25 5 7 11 15 17 22 2 3 3 6 4 9 2 4 1 11-3 13z" />
<glyph glyph-name="page" horiz-adv-x="1000" unicode="&#xefb2;" d="M828 788h-656c-30 0-55-25-55-55v-766c0-30 25-55 55-55h656c30 0 55 25 55 55v766c0 30-25 55-55 55z m-519-165h218c15 0 28-12 28-27 0-15-13-27-28-27h-218c-15 0-28 12-28 27 0 15 13 27 28 27z m383-546h-383c-15 0-28 12-28 27 0 15 13 27 28 27h382c16 0 28-12 28-27 0-15-13-27-27-27z m0 164h-383c-15 0-28 12-28 27 0 15 13 27 28 27h382c16 0 28-12 28-27 0-15-13-27-27-27z m0 164h-383c-15 0-28 12-28 27 0 15 13 27 28 27h382c16 0 28-12 28-27 0-15-13-27-27-27z" />
<glyph glyph-name="tools-alt-2" horiz-adv-x="1000" unicode="&#xf013;" d="M671 428c30 31 59 47 102 39 42-7 82 0 115 33 41 41 63 108 41 162-26-29-50-54-73-80-11-12-21-14-36-10-75 20-74 19-94 92-6 19-2 31 12 43 24 23 47 47 73 73-111 24-196-47-191-153 1-11 0-23 1-34 4-23-5-38-21-55-99-97-197-196-295-295-12-12-25-16-42-16-34 2-71 9-102-1-79-27-118-129-89-192 26 28 49 54 73 80 7 8 13 14 26 13 73-11 82-20 103-91 7-23 2-37-15-51-25-20-48-41-72-62 111-34 202 41 195 145-1 14-2 29-3 43-2 16 3 27 15 39 93 92 186 183 277 278z m17-126c-19 20-31 24-47 0-3-4-7-8-11-10-18-13-16-23-1-37 59-57 116-115 175-173 14-14 28-30 9-47-17-16-32-4-45 10-55 55-112 108-165 165-21 22-35 28-54 1-3-4-7-8-11-11-13-10-13-18-1-30 75-74 149-150 226-224 30-30 69-37 109-19 38 17 55 49 59 84 0 37-14 62-36 85-70 68-139 136-207 206z m-569 333c20-20 40-42 72-37 18 2 28-5 40-16 47-48 96-95 143-143 15-16 22-10 35 2 13 13 14 21 0 34-46 44-90 89-135 134-15 15-36 28-23 52 0 35-24 54-45 73-45 42-45 41-88-2-49-48-49-49 1-97z" />
<glyph glyph-name="tools" horiz-adv-x="1000" unicode="&#xf014;" d="M594 318c-4 2-5 4-5 8 0 11 0 22 0 32 0 3 2 6 4 7 7 5 15 9 22 13 15 9 30 17 47 27-6 17-12 34-18 50-2 6-5 7-11 7-23-3-46-5-69-7-4-1-7 1-9 4-6 9-13 17-19 25-2 3-3 5-1 9 3 7 6 14 9 22 8 16 15 32 22 49-16 11-31 21-47 32-3 3-5 1-8-1-18-16-36-31-54-47-3-2-6-3-10-1-10 3-20 6-30 9-4 1-6 3-7 8-5 24-11 48-17 73h-62c-6-25-12-49-17-74-1-4-3-6-7-7-10-3-20-6-30-9-4-2-7-1-10 2-18 15-36 31-54 46-2 1-6 2-7 1-16-10-32-21-48-32 10-25 21-47 31-70 2-5 1-7-2-11-5-7-11-13-15-21-4-7-9-8-17-7-22 3-45 5-67 6-2 1-6-1-6-2-7-18-13-36-20-54 4-2 6-3 8-5 20-11 40-23 60-34 4-2 5-5 5-9 0-10 0-20 0-30 0-5-1-7-5-10-20-11-40-22-60-34-2-1-4-2-7-5 6-17 12-33 17-50 2-6 6-7 11-6 23 2 46 4 69 7 4 0 7-1 10-5 5-8 11-16 17-23 4-4 4-8 2-13-11-22-21-45-31-68 16-11 32-22 48-33 1-1 5 0 7 2 18 15 36 30 54 46 3 3 6 3 10 2 10-4 19-7 29-9 5-2 7-4 8-9 5-24 11-48 17-73h62c6 25 12 49 17 74 1 4 3 6 8 8 10 2 20 5 29 9 5 1 7 1 10-2 18-16 36-31 54-47 2-1 6-2 7-1 16 11 32 22 48 33-10 24-21 47-31 70-2 4-1 7 1 10 6 7 12 13 17 21 4 8 9 8 16 7 23-2 45-4 67-6 3 0 6 2 7 4 6 17 12 35 19 52-4 3-6 4-8 5-20 12-40 24-60 35z m-237-73c-52 2-96 47-95 99 2 55 48 96 105 95 53-1 96-47 95-100-2-54-48-95-105-94z m535 390c-8 6-17 12-27 19v-12c0-27 0-53 0-79 0-5-2-8-6-10-18-9-35-19-53-28-4-3-8-3-13 0-16 9-33 18-51 27-6 3-7 6-7 12 0 29 0 58 0 89-29-15-49-35-61-61-28-59-6-121 52-148 7-3 9-7 9-13v-90l-1-225c0-4 0-8 1-12 2-46 56-72 98-49 23 13 32 33 32 58 0 76 0 152 0 228 0 30 0 60 0 91 0 6 2 9 8 12 22 10 40 25 52 46 25 46 11 110-33 145z m-91-558c-15 0-27 12-27 26 1 14 14 25 28 25 15-1 28-13 27-27-1-14-13-24-28-24z" />
<glyph glyph-name="long-arrow-left" horiz-adv-x="1000" unicode="&#xea93;" d="M774 313c14 0 26 11 26 26v22c0 15-12 26-26 26h-412v110c0 14-8 18-18 8l-136-137c-10-10-10-26 0-36l136-136c10-11 18-7 18 7v110h412z" />
<glyph glyph-name="long-arrow-right" horiz-adv-x="1000" unicode="&#xea94;" d="M226 313h412v-110c0-14 8-18 18-7l136 136c11 10 11 26 0 36l-136 137c-10 10-18 6-18-8v-110h-412c-14 0-26-11-26-25v-23c0-15 12-26 26-26z" />
<glyph glyph-name="long-arrow-up" horiz-adv-x="1000" unicode="&#xea95;" d="M537 76v412h110c14 0 18 8 8 18l-137 136c-10 11-26 11-36 0l-136-136c-11-10-7-18 7-18h110v-412c0-14 11-26 26-26h23c14 0 25 12 25 26z" />
<glyph glyph-name="long-arrow-down" horiz-adv-x="1000" unicode="&#xea92;" d="M537 624v-412h110c14 0 18-8 8-18l-137-136c-10-10-26-10-36 0l-136 136c-11 10-7 18 7 18h110v412c0 14 11 26 26 26h23c14 0 25-12 25-26z" />
<glyph glyph-name="arrow-up" horiz-adv-x="1000" unicode="&#xea5e;" d="M427 73v343l-127-128c-9-8-23-8-32 0l-54 54c-8 9-8 23 0 32l270 269c9 9 23 9 32 0l269-269c9-9 9-23 0-32l-53-54c-9-8-23-8-32 0l-137 137v-352c0-13-10-23-23-23h-90c-13 0-23 10-23 23z" />
<glyph glyph-name="arrow-right" horiz-adv-x="1000" unicode="&#xea5d;" d="M223 422h343l-128 128c-8 9-8 23 0 32l54 53c9 9 23 9 32 0l269-269c9-9 9-23 0-32l-269-269c-9-9-23-9-32 0l-54 53c-8 9-8 23 0 32l137 137h-352c-13 0-23 10-23 23v90c0 12 10 22 23 22z" />
<glyph glyph-name="arrow-left" horiz-adv-x="1000" unicode="&#xea5c;" d="M777 422h-343l128 128c8 9 8 23 0 32l-54 53c-9 9-23 9-32 0l-269-269c-9-9-9-23 0-32l269-269c9-9 23-9 32 0l54 53c8 9 8 23 0 32l-137 137h352c13 0 23 10 23 23v90c0 12-10 22-23 22z" />
<glyph glyph-name="arrow-down" horiz-adv-x="1000" unicode="&#xea5b;" d="M772 358l-53 54c-9 8-24 8-32 0l-137-137v352c0 13-10 23-23 23h-90c-13 0-23-10-23-23v-343l-127 128c-9 8-23 8-32 0l-54-54c-8-9-8-23 0-32l270-269c9-9 23-9 32 0l269 269c9 9 9 23 0 32z" />
<glyph glyph-name="monitor" horiz-adv-x="1000" unicode="&#xea48;" d="M1000 112v646h-1000v-646h476v-121h-159v-49h366v49h-159v121h476z m-972 618h944v-590h-944v590z" />
<glyph glyph-name="laptop-alt" horiz-adv-x="1000" unicode="&#xea41;" d="M125 135h751c7 0 12 6 12 13v486c0 7-5 13-12 13h-751c-8 0-13-6-13-13v-486c0-7 5-13 13-13z m45 441c0 7 6 13 13 13h634c7 0 13-6 13-13v-370c0-7-6-13-13-13h-634c-7 0-13 6-13 13v370z m817-462h-974c-7 0-13-6-13-13v-35c0-8 6-13 13-13h974c7 0 13 5 13 13v35c0 7-6 13-13 13z m-405-36h-164v10h164v-10z" />
<glyph glyph-name="laptop" horiz-adv-x="1000" unicode="&#xea42;" d="M856 146v427c0 11-4 21-11 28-6 8-15 14-24 14h-646c-17 0-31-17-31-38v-426c0-1 0-3 1-5h-82v-18c0-10 4-19 10-26 7-10 19-16 32-16h794c21 0 39 16 39 37v23h-82z m-356 462c6 0 11-5 11-11 0-6-5-11-11-11-6 0-11 5-11 11 0 6 5 11 11 11z m56-476h-116v11h116v-11z m269 43h-653v402h653v-402z" />
<glyph glyph-name="surface-tablet" horiz-adv-x="1000" unicode="&#xea52;" d="M978 670h-955c-13 0-23-10-23-23v-594c0-13 10-23 23-23h955c12 0 22 10 22 23v594c0 13-10 23-22 23z m-482-620l-9 3v8h9v-11z m0 14h-9v8l9 3v-11z m17-19l-14 4v12h14v-16z m0 19h-14v12l14 4v-16z m427 29h-878v506h878v-506z" />
<glyph glyph-name="android-tablet" horiz-adv-x="1000" unicode="&#xea2a;" d="M761 850h-523c-22 0-40-18-40-40v-920c0-22 18-40 40-40h524c22 0 40 18 40 40v920c0 22-18 40-41 40z m-16-894h-487v784h487v-784z" />
<glyph glyph-name="copy-invert" horiz-adv-x="1000" unicode="&#xede9;" d="M749 553c-40 39-79 78-119 117-9 9-19 13-32 13-164 0-327 0-491 0-24 0-36-13-36-37v-758c0-27 10-38 37-38 44 0 88 0 133 0h484c28 0 37 10 37 37 0 211 0 422 0 633 1 13-3 23-13 33z m-509-127c46 0 91 0 136 0 9 0 15-3 15-11 0-10-6-13-15-13-23 1-46 0-69 0-22 0-45 1-67 0-8 0-15 2-15 12s7 12 15 12z m366-371c-1-7-6-9-12-9-19-1-37-1-55-1l-293 1c-3 0-6-1-9 0-8 0-12 4-12 12 0 7 5 11 12 11 21 0 41 0 62 0h118v0h171c5 0 9 1 13-2 5-3 6-8 5-12z m-13 109c-24-1-47 0-70 0h-109v0h-172c-9 0-17 1-17 11-1 8 5 13 17 13h347c7 0 15-1 17-9 2-9-3-15-13-15z m1 119c-31-1-61 0-91 0h-255c-3 0-6-1-9-1-8 1-14 3-14 12 0 10 6 12 14 12l121 0h57v0h174c5 0 11 0 14-6 5-8-1-17-11-17z m335 88c0 105 0 210 0 315 0 14-4 25-14 35-38 37-76 74-114 112-12 12-24 17-41 17-145 0-291 0-437 0-17 0-34 0-51 0-23-1-34-12-34-34-1-19 0-38 0-57 0-6 2-9 8-9 11 1 22 1 32 1 20 0 19 0 20 19 0 21-4 20 20 20 94 0 187 0 280 0 48 0 95 0 143 0 10 0 14-2 13-13-1-26 0-53 0-79 0-16 6-22 22-22 27 0 54 0 81 0 10 1 12-3 12-12 0-63 0-126 0-189 0-123 0-247 0-370 0-27 0-27-27-27-1 0-2 0-2 0-7 0-9-2-9-9 0-14 0-29 0-43 0-6 2-9 8-9 20 0 41 0 61 1 17 0 27 11 29 29 0 3 0 7 0 11 0 104 0 209 0 313z" />
<glyph glyph-name="copy" horiz-adv-x="1000" unicode="&#xedea;" d="M749 553c-40 39-79 78-119 117-9 9-19 13-32 13-163 0-327 0-491 0-24 0-36-12-36-37v-758c0-27 10-38 37-38 44 0 89 0 133 0h484c28 0 37 10 37 37 0 211 0 422 1 633 0 13-4 23-14 33z m-59-643c-180 0-360 0-540 0-23 0-19-2-19 19 0 112 0 225 0 337 0 114 0 229 0 344 0 10 3 13 13 13 99 0 199 0 298 0 43 0 86 0 129 0 16 0 16-1 16-17 0-24 0-48 0-73 0-19 6-24 25-24 27 0 53 0 80 0 8 0 11-2 11-11-1-110 0-220 0-330 0-82-1-163 0-245 0-10-3-13-13-13z m239 461c0 105 0 210 0 315 0 14-4 25-14 35-38 37-76 74-114 112-12 12-24 17-41 17-145 0-291 0-437 0-17 0-34 0-51 0-23-1-34-12-34-34 0-19 0-38 0-57 0-6 2-9 8-8 11 0 22 0 32 0 20 0 19 0 20 19 0 21-4 20 20 20 93 0 187 0 280 0 48 0 95 0 143 0 10 0 13-2 13-13-1-26 0-53 0-79 0-16 6-22 22-22 27 0 54 0 81 0 10 1 12-3 12-12 0-63 0-126 0-189 0-123 0-247 0-370 0-27 0-27-27-27-1 0-2 0-3 0-6 0-8-2-8-9 0-14 0-29 0-43 0-6 2-9 8-9 20 0 40 0 60 1 18 0 28 11 30 29 0 3 0 7 0 11 0 104 0 209 0 313z m-328-304c-4 3-8 2-13 2h-171v0h-118c-21 0-41 0-62 0-7 0-12-4-12-11 0-8 4-12 12-12 3-1 6-1 9-1 97 0 195 0 293 0 18 0 36 0 55 1 6 0 11 2 12 8 1 6 0 10-5 13z m-12 120c-116 0-231 0-347 0-12 0-18-4-17-12 0-10 8-11 17-11 57 0 115 0 172 0v-1h109c23 0 46 0 70 1 10 0 15 6 13 14-2 9-10 9-17 9z m2 119h-174v0h-57l-121 0c-8 0-14-2-14-11 0-10 6-12 14-12 3 0 6 0 9 0h255c30 0 61 0 91 0 10 0 16 9 11 17-3 6-9 6-14 6z m-351 96c22 1 45 0 67 0 23 0 46 1 69 0 9 0 15 3 15 13 0 8-6 11-15 11l-136 0c-8 0-15-2-15-12 0-10 7-12 15-12z" />
<glyph glyph-name="ui-copy" horiz-adv-x="1000" unicode="&#xec51;" d="M750 434c0-93 0-186 0-279 0-67-42-120-107-135-9-1-18-3-27-3-132 0-265 0-397 0-66 0-119 43-132 107-2 10-3 20-3 30 0 151 0 302 0 453-1 24 8 45 21 64 36 52 83 93 134 129 29 20 58 38 92 47 8 2 16 3 24 3 87 0 174 0 261 0 75 0 133-60 134-134 0-94 0-188 0-282z m-601 184c0-4 0-6 0-9 0-154 0-308 0-463 0-34 31-64 65-64 135 0 269 0 404 0 4 0 9 0 13 2 33 7 53 34 53 68v566c0 37-29 67-66 67-86 0-172 0-258 0-3 0-7-1-11-1 0-5 0-10 0-14-1-25 0-50-2-75-3-37-25-64-60-72-13-3-26-5-40-5-32 0-64 0-98 0z m102-636c20 0 39 0 59 0 2 0 5-4 6-6 3-35 35-62 73-61 131 1 262 0 393 0 34 0 60 21 68 53 1 5 1 9 1 14 0 190 0 380 0 570 0 33-24 61-57 65-8 1-10 4-9 11 0 18 0 36 0 54 25 0 47-6 67-18 42-26 64-65 64-114 1-189 1-378 0-567 0-79-61-128-117-131-46-2-92-2-139-2-91 0-183 0-275 0-49 1-87 22-114 64-13 20-19 42-20 68z m165 519c-59 0-118 0-177 0-14 0-20 5-22 25 0 16 7 24 22 24 118 0 235-1 352 0 10 0 18-1 22-11 4-11 5-23-3-32-4-4-11-6-16-6-60 0-119 0-178 0z m0-100h-177c-15 0-22 7-21 24 0 17 6 25 21 25 118-1 236-1 354-1 15 0 23-7 23-23 0-17-7-25-24-25-58 0-117 0-176 0z m0-52h177c16 0 24-7 23-24-1-17-6-24-24-24-118 0-236 0-354 0-13 0-17 4-20 19-4 18 5 29 24 29 58 0 116 0 174 0z m-1-148c-58 0-116 0-174-1-18 0-23 7-23 27 0 17 6 22 24 22h352c14 0 22-8 22-24 0-15-7-24-22-24-59 0-119 0-179 0z" />
<glyph glyph-name="check-circled" horiz-adv-x="1000" unicode="&#xeed7;" d="M687 551c-3 3-9 3-13-1-83-88-166-176-249-264-4-4-10-4-13 0l-89 88c-3 4-9 4-13 0l-53-53c-4-4-4-10 0-14l158-158c3-3 9-3 13 1 105 111 210 223 316 335 3 4 3 9-1 13-18 18-37 35-56 53z m-187 237c-242 0-437-196-437-438s195-438 437-438 438 196 438 438-196 438-438 438z m0-807c-203 0-369 166-369 369s166 369 369 369c204 0 369-165 369-369s-165-369-369-369z" />
<glyph glyph-name="check-alt" horiz-adv-x="1000" unicode="&#xeed6;" d="M415 134c-8-8-17-11-27-11-9 0-18 3-26 11l-162 162 52 53 136-137 363 366 49-53-385-391z" />
<glyph glyph-name="check" horiz-adv-x="1000" unicode="&#xeed8;" d="M396 106l-193 192c-4 5-4 12 0 17l66 65c4 4 11 4 16 0l108-108c4-4 11-4 16 0 101 108 202 215 303 322 4 5 12 5 16 1l68-65c5-4 5-11 1-16-129-136-257-272-385-408-4-5-12-5-16 0z" />
<glyph glyph-name="ui-check" horiz-adv-x="1000" unicode="&#xec4b;" d="M986 675l-154 124c-16 13-40 10-53-6l-419-519-164 149c-15 14-39 13-53-2l-133-146c-14-16-13-40 2-54l351-319c16-14 39-12 52 4l124 154c0 1 0 1 0 1l453 561c13 16 10 40-6 53z" />
<glyph glyph-name="checked" horiz-adv-x="1000" unicode="&#xeed9;" d="M705 73h-510c-7 0-12 6-12 12v510c0 7 5 13 12 13h392c7 0 17 4 22 9l102 102c5 5 3 9-4 9h-632c-7 0-12-6-12-13v-750c0-7 5-12 12-12h750c7 0 12 5 12 12v472c0 6-4 8-8 3l-103-102c-5-5-9-15-9-21v-232c0-6-5-12-12-12z m-400 365l-67-68c-5-5-5-12 0-17l186-186c5-5 13-5 18 0l492 492c5 5 5 13 0 17l-67 68c-5 5-13 5-18 0l-407-408c-5-5-13-5-18 0l-101 102c-5 4-13 4-18 0z" />
<glyph glyph-name="verification-check" horiz-adv-x="1000" unicode="&#xf021;" d="M793 687c-133-126-265-252-397-378-9-8-23-8-31 1l-140 147c-8 9-22 10-31 2-42-36-82-72-124-109-9-8-10-21-2-30 93-102 185-204 278-306 8-8 22-9 31-1 185 173 369 344 553 515 9 9 10 23 2 32-37 42-73 84-109 126-8 9-21 10-30 1z" />
<glyph glyph-name="file-check" horiz-adv-x="1000" unicode="&#x13b25;" d="M560 72c-17 17-46 17-63 0-18-18-18-46 0-64l118-119c18-17 46-17 64 0l301 301c17 17 17 46 0 64-18 17-46 17-64 0l-269-269-87 87z" />
<glyph glyph-name="file-check" horiz-adv-x="1000" unicode="&#x13b24;" d="M660 850l-527 0c-18 0-33-15-33-33l0-934c0-18 15-33 33-33l234 0c18 0 33 15 33 33l0 41c0 18-15 33-33 33l-120 0c-19 0-34 15-34 33l0 708c0 18 15 33 34 33l280 0c18 0 33-15 33-33l0-155 160 0c19 0 34-14 34-33l0-160c0-19 14-34 33-34l47 0c18 0 33 15 33 34l0 293c0 9-3 17-10 23l-174 174c-6 7-14 10-23 10z" />
<glyph glyph-name="facebook-messenger" horiz-adv-x="1000" unicode="&#xed36;" d="M500 788c-240 0-435-182-435-406 0-127 63-241 162-315v-155l148 82c40-11 82-17 125-17 240 0 435 182 435 405s-195 406-435 406z m43-546l-110 119-217-119 238 254 114-119 213 119-238-254z" />
<glyph glyph-name="facebook" horiz-adv-x="1000" unicode="&#xed37;" d="M703 504h-138v91c0 34 22 42 38 42h98v150l-135 1c-149 0-183-112-183-184v-100h-86v-154h86v-437h182v437h122l16 154z" />
<glyph glyph-name="reddit" horiz-adv-x="1000" unicode="&#xed62;" d="M688 317c2-5 3-11 3-17 0-12-4-24-11-33-6-10-16-17-27-20l-1 0h0c-5-2-11-3-16-3-13 0-25 5-35 12-10 8-18 19-20 33v0c-1 3-1 7-1 10 0 12 4 23 10 32 7 9 16 16 26 20h1c6 2 12 3 18 3 12 0 23-4 32-10 10-6 17-15 21-27l0 0c0 0 0 0 0 0z m-35-141c-4 3-10 5-15 5-4 0-9-1-13-4-39-23-84-36-129-36-34 0-68 7-98 22l-1 1 0 0c-4 2-10 6-15 9-3 2-6 4-10 5-3 2-7 3-11 3-3 0-6-1-10-2l0-1c-6-2-10-5-13-10-2-4-4-10-4-15 0-5 1-9 4-14 2-4 5-7 10-10 43-29 95-42 146-42 47 0 93 10 135 30l0 0 0 0c6 3 13 6 20 11 3 2 7 4 10 7 2 4 5 8 6 12 1 3 1 5 1 7 0 3-1 7-3 10-2 5-5 9-10 12z m-306 71c0 0 0 0 0 0 6-2 12-3 17-3 15 0 28 6 39 15 10 10 17 23 17 38v2c0 0 0 1 0 2 0 15-7 29-17 38-10 10-24 16-38 16-4 0-8-1-12-2h0c-19-4-35-18-41-37v0c-2-5-3-11-3-16 0-12 4-23 11-33 6-9 16-16 27-20l0 0z m590 137c0-2 1-3 1-5 0-22-7-42-19-59-10-17-25-30-42-39 1-9 2-17 2-26 0-46-16-91-43-127h0c-51-67-129-107-208-127h0c-42-11-85-16-129-16-64 0-129 12-189 36v0h0c-62 26-122 67-158 127-20 32-31 69-31 107 0 8 1 17 2 25-16 10-31 23-41 38-11 17-19 37-19 58v0c0 29 12 57 32 77s47 34 75 34h2c3 0 6 0 9 0 14 0 29-2 42-7l1-1h0c11-5 23-10 34-19 3 2 7 4 11 6 63 37 136 51 208 56 1 35 5 72 22 105 15 27 40 48 69 55l1 0h0c11 2 23 3 34 3 30 0 60-7 88-18 12 19 30 33 51 41l0 0 0 1c12 3 25 6 38 6 14 0 27-3 40-9l0 0c19-7 34-20 46-36 11-17 17-36 17-56 0-4 0-8 0-12v0c-3-26-16-49-34-65-19-16-44-26-69-26-4 0-8 0-12 0-24 2-48 14-65 32-17 18-28 42-28 67 0 2 1 3 1 4-24 11-48 19-73 19-3 0-7 0-11-1-18-1-35-13-43-30v0c-13-24-15-53-16-81 71-5 142-22 204-57h0l1-1c1-1 3-2 5-3 4 4 9 7 14 10 19 13 41 19 63 19 10 0 20-1 30-4l0 0 1 0c22-6 43-19 58-36 16-18 26-40 28-65z m-207 231c0-1 0-2 0-3v0c0-12 6-24 15-32 9-9 20-14 32-14h1c1 0 1 0 2 0 12 0 24 5 33 14 9 8 15 19 15 32v0c1 1 1 2 1 3 0 13-6 25-16 34-9 9-21 14-34 14-4 0-8 0-11-2h-1c-10-2-19-8-26-17-7-8-11-18-11-29z m-520-189c-10 5-20 8-29 8-2 0-3 0-5-1h0c-14 0-28-6-39-16-10-9-17-22-18-37v0c0-1 0-2 0-3 0-9 3-18 8-26 3-5 8-11 13-15 16 35 41 65 70 90z m614-173c0 32-12 63-30 89-37 51-94 84-153 103l-1 0c-11 3-23 7-34 9-35 8-70 12-106 12-47 0-95-7-141-21-59-19-116-52-153-103-18-26-29-58-29-89 0-12 1-24 4-35 7-25 20-48 37-68 17-20 38-37 59-50 5-3 10-6 15-9 63-35 136-51 208-51 13 0 25 1 37 2 73 6 146 27 205 71 19 14 36 31 50 50 14 19 24 40 29 64v0c2 8 3 17 3 26z m57 126c0 7-2 15-6 22l0 0v0c-5 11-13 19-23 24s-21 8-32 8c-10 0-21-2-30-6 29-26 55-56 71-91 5 4 10 10 13 16 5 8 7 18 7 27z" />
<glyph glyph-name="brand-whatsapp" horiz-adv-x="1000" unicode="&#xe957;" d="M1000 363c0-269-220-487-491-487-86 0-167 22-237 60l-272-86 89 261c-45 74-71 160-71 252 0 269 220 487 491 487 271 0 491-218 491-487z m-491 410c-227 0-413-184-413-410 0-90 30-173 79-240l-52-152 159 50c65-43 143-68 227-68 228 0 413 184 413 410s-185 410-413 410z m248-522c-3 5-11 8-23 14-12 6-71 35-82 38-11 4-19 6-27-6s-31-38-38-46-14-9-27-3c-12 6-50 18-96 59-36 32-60 71-67 83s-1 18 5 24c5 5 12 14 18 21s8 12 12 20 2 15-1 21c-3 6-27 64-37 88-10 24-20 20-27 20-7 0-15 1-23 1-8 0-21-3-32-15s-42-41-42-99c0-59 43-116 49-124s83-132 205-180 123-32 145-30c22 2 71 29 81 57s10 52 7 57z" />
<glyph glyph-name="whatsapp" horiz-adv-x="1000" unicode="&#xed86;" d="M508 788c-235 0-426-191-426-427 0-80 22-156 61-220l-77-229 236 76c61-34 131-53 206-53 235 0 426 191 426 426s-191 427-426 427z m209-574c-9-25-43-45-71-51-18-4-43-7-125 27-106 44-173 151-179 158-5 7-42 56-42 108s26 76 37 87c8 9 23 13 36 13 5 0 9 0 12-1 11 0 16-1 23-17 9-21 30-73 32-78 3-5 5-12 2-19-4-7-7-11-12-17-5-6-10-10-16-17-4-6-10-12-4-22 6-11 27-45 58-73 40-35 73-47 85-51 8-4 19-3 25 4 8 8 18 23 28 37 7 10 16 11 26 7 9-3 60-28 71-33 11-6 18-8 20-13 2-4 2-25-6-49z" />
<glyph glyph-name="xing" horiz-adv-x="1000" unicode="&#xed87;" d="M601-88l-196 344 304 532h204l-303-532 196-344h-205z m-321 265l152 250-114 201h-193l114-201-152-250h193z" />
<glyph glyph-name="tumblr" horiz-adv-x="1000" unicode="&#xed78;" d="M576 72c-14 9-28 24-33 38-6 15-5 44-5 95v224h204v156h-204v203h-125c-6-45-16-83-31-112-15-29-35-54-60-75-25-21-65-37-99-48v-124h119v-307c0-40 5-70 13-92 9-21 24-41 46-59 22-19 48-33 79-43 31-11 55-16 95-16 36 0 69 4 99 11 31 7 65 20 103 37v138c-44-29-89-43-134-43-25 0-47 6-67 17z" />
<glyph glyph-name="digg" horiz-adv-x="1000" unicode="&#xed2c;" d="M218 661v-155h-155v-312h243v467h-88z m-68-389v156h68v-156h-68z m175 234h88v-312h-88v312z m0 155h88v-87h-88v87z m360-155h-234v-312h146v-68h-146v-87h234v467z m-146-234v156h58v-156h-58z m399 234h-234v-312h156v-68h-156v-87h234v467z m-78-234h-68v156h68v-156z" />
<glyph glyph-name="vk" horiz-adv-x="1000" unicode="&#xed83;" d="M491 103h52s16 1 24 10c7 8 7 23 7 23s-1 70 32 81c32 10 73-68 117-98 33-23 58-18 58-18l117 2s61 3 32 51c-3 4-17 36-87 101-73 68-64 57 25 175 53 71 75 115 68 134-6 17-46 13-46 13l-131-1s-10 1-17-3c-7-4-12-14-12-14s-21-56-48-103c-59-99-82-104-92-98-22 14-17 57-17 88 0 97 15 137-28 147-15 4-25 6-62 6-47 1-86 0-109-11-15-7-26-23-19-24 8-2 28-6 38-20 14-18 13-59 13-59s8-114-18-128c-17-10-42 10-94 100-27 47-47 98-47 98s-4 9-11 14c-8 7-20 9-20 9l-125-1s-19-1-26-9c-6-7 0-22 0-22s98-229 209-345c101-105 217-98 217-98" />
<glyph glyph-name="instagram" horiz-adv-x="1000" unicode="&#xed46;" d="M499 607c-141 0-257-115-257-256 0-142 116-257 257-257 142 0 257 115 257 257 0 141-115 256-257 256z m0-415c-87 0-159 71-159 159 0 87 72 158 159 158 88 0 159-71 159-158 0-88-71-159-159-159z m210 653h-420c-157 0-284-128-284-285v-419c0-157 127-285 284-285h420c157 0 285 128 285 285v419c0 157-128 285-285 285z m187-704c0-103-84-187-187-187h-420c-103 0-186 84-186 187v419c0 103 83 187 186 187h420c103 0 187-84 187-187v-419z m-136 541c-37 0-68-31-68-68 0-37 30-67 68-67 37 0 67 30 67 67s-30 68-67 68z" />
<glyph glyph-name="ui-email" horiz-adv-x="1000" unicode="&#xec56;" d="M953 372c-3-78-27-146-71-204s-110-86-197-86c-29 0-54 8-75 24-21 17-36 40-45 69-15-30-33-53-55-68-23-15-49-23-79-23-53 0-94 21-122 64s-39 98-31 168c9 90 35 162 78 216 43 54 96 81 157 81 43 0 78-4 105-14 26-9 55-23 86-43l-1-2h2l-27-304c-2-31 0-52 6-64 6-11 14-17 24-17 40 0 72 19 96 58 25 38 38 87 41 145 6 122-18 216-71 284-54 68-136 102-247 102-109 0-194-37-258-110s-98-172-104-298c-6-123 20-220 78-291 58-71 141-107 249-107 30 0 61 3 93 10 33 6 61 15 84 25l21-89c-24-15-55-27-92-35-37-9-73-13-108-13-145 0-256 44-334 134-78 89-114 211-108 366 6 153 52 275 138 365s200 135 343 135c140 0 247-43 321-128 74-85 108-202 103-350z m-542-56c-4-42-1-75 9-97s25-33 46-33c20 0 37 5 52 16 15 11 29 31 40 60l22 242c-8 2-16 4-23 5-8 1-15 2-23 2-37 0-66-16-85-49s-32-81-38-146z" />
<glyph glyph-name="email" horiz-adv-x="1000" unicode="&#xef12;" d="M520 496c-6-1-11-3-16-6-5-3-9-7-12-13s-5-10-6-17c-1-6-2-13-1-20 1-8 3-14 8-18 4-3 9-5 15-4 4 0 7 1 10 1s6 2 9 4l6 73c-3 0-5 0-7 0-1 0-3 0-6 0z m-451 62c139-139 278-277 416-416 12-12 17-11 29 0l393 394c10 9 23 17 28 29 5 12 1 27 1 41 1 28-13 41-41 41h-792c-27 0-40-14-40-40 0-11 0-22 0-33-1-7 2-11 6-16z m318-81c5 19 13 35 24 51 12 15 27 28 46 39 20 11 43 18 70 21 15 1 29 0 42-2 14-3 26-8 36-15 11-7 19-17 26-28 7-12 11-26 13-43 1-12 0-24-2-36-3-12-8-23-14-33-6-10-14-18-24-25-9-7-20-11-33-12-14-2-25 1-33 8-5-4-11-7-17-10-7-3-14-4-24-5-6-1-12-1-18 1-5 1-10 3-15 7-4 4-8 8-11 14-3 6-5 13-6 21-1 13 0 25 4 37 3 11 8 21 15 30 6 8 15 15 24 21 10 5 20 8 31 10 9 0 18 1 26 0 9 0 17-2 24-4l-9-100c2-1 6-1 10-1 7 1 13 3 19 8 5 5 9 11 12 18 3 7 5 15 6 23 2 9 2 17 1 25-2 22-11 38-25 49-15 10-34 14-59 12-19-2-35-7-50-14-14-8-25-18-34-30s-16-25-20-40c-4-15-5-30-4-45 1-14 5-25 10-35 5-9 11-17 19-22 8-6 17-10 26-12 10-2 21-2 31-1 10 1 20 2 28 4 8 2 16 5 23 9 2-5 4-9 6-13 2-5 4-9 5-13-3-2-7-4-12-6-5-2-10-4-15-5-6-2-12-3-18-4-6-1-12-2-18-2-15-2-30-1-43 2-14 3-26 8-37 16-11 8-20 18-27 31-7 13-12 28-13 47-2 17 0 34 4 52z m352-186c-2 2-5 4-9 8-2-3-4-6-6-8-60-60-120-120-180-180-28-28-61-28-88-1-60 60-120 120-180 180-3 3-5 6-7 9-3-2-4-3-5-4-65-65-131-131-196-196-6-6-6-12-4-19 4-18 18-27 38-27h794c3 0 6 0 8 0 13 2 23 8 29 20 5 12 6 18-5 30-63 62-126 125-189 188z m-676-133l170 170c-56 58-113 115-170 172v-342z m873 1v341l-170-170 170-171z" />
<glyph glyph-name="envelope-badge" horiz-adv-x="1000" unicode="&#x13b0b;" d="M570 278l282-281c-15-13-40-19-74-19l-615 0c-38 0-65 6-81 20l282 280 22-22c27-26 53-38 81-38 29 0 54 12 81 38l22 22z m-524 314l275-272-277-275c-6 11-10 29-11 53l0 9 0 420c0 31 5 52 13 65z m567-272l90 89c36-26 79-41 126-41 21 0 42 4 61 9l10 4 0-274c0-26-3-45-9-58l-2-4-276 275 90 89z m9 336c-8-22-11-45-11-69 0-49 16-94 43-130l6-8-144-143c-17-17-32-25-49-25-15 0-28 6-44 20l-5 5-334 332c13 11 34 17 63 18l9 0 466 0z" />
<glyph glyph-name="envelope-badge" horiz-adv-x="1000" unicode="&#x13b0a;" d="M829 750l7 0c86-4 156-76 156-163 0-89-74-163-163-163-89 0-163 73-163 163 0 87 70 159 156 163l7 0z" />
<glyph glyph-name="envelope-open" horiz-adv-x="1000" unicode="&#x13b0d;" d="M1000 517l-454-318c-27-20-65-20-92 0l-454 318 1000 0z m-546 318c27 20 65 20 92 0l0 0 454-317-1000 0z" />
<glyph glyph-name="envelope-open" horiz-adv-x="1000" unicode="&#x13b0c;" d="M635 194l333-310c-8-2-18-5-25-5l0 0-883 0c-10 0-20 3-28 5l0 0 335 310 60-42c45-32 102-32 149 0l0 0 59 42z m365 256l0-526-325 298 325 228z m-1000 0l325-228-322-298c-2 4-3 8-3 11l0 515z" />
<glyph glyph-name="envelope" horiz-adv-x="1000" unicode="&#x13b0f;" d="M0 662l454-317c27-20 65-20 92 0l454 317c-2 32-27 55-57 55l-883 0c-30 0-57-23-60-55z" />
<glyph glyph-name="envelope" horiz-adv-x="1000" unicode="&#x13b0e;" d="M635 347l333-310c-8-3-18-5-25-5l0 0-883 0c-10 0-20 2-28 5l0 0 335 310 60-42c45-32 102-32 149 0l0 0 59 42z m365 256l0-526-325 297 325 229z m-1000 0l325-229-322-297c-2 3-3 7-3 10l0 516z" />
<glyph glyph-name="envelope-open" horiz-adv-x="1000" unicode="&#xef13;" d="M523 181c-13-9-33-9-45 0l-393 280c-12 8-22 3-22-12v-448c0-16 12-28 27-28h820c15 0 28 12 28 28v448c0 15-11 20-23 12l-392-280z m-38 49c5-3 10-5 15-5s11 2 15 5l330 235c6 5 11 13 11 21v215c0 15-12 26-26 26h-660c-14 0-25-11-25-26v-215c0-9 4-17 10-21l330-235z m-186 391h386c16 0 28-13 28-28 0-16-12-28-28-28h-386c-16 0-28 12-28 28 0 15 12 28 28 28z m0-98h386c16 0 28-13 28-28s-12-28-28-28h-386c-16 0-28 12-28 28 0 15 12 28 28 28z" />
<glyph glyph-name="envelope" horiz-adv-x="1000" unicode="&#xef14;" d="M493 268c-118 58-337 166-408 200-12 6-22-1-22-14v-396c0-14 11-25 25-25h824c14 0 25 11 25 24v396c0 14-10 20-22 14-70-34-287-141-403-199-7-3-12-3-19 0z m-314 230c105-52 210-103 315-154 4-2 11-3 15-1 140 69 281 139 422 208 5 2 7 5 7 11-1 21 0 57 0 81 0 14-11 25-25 25h-826c-13 0-24-11-24-25 0-24 0-61 0-82 0-3 4-8 7-10 36-18 72-35 109-53z" />
<glyph glyph-name="pinterest" horiz-adv-x="1000" unicode="&#xed5d;" d="M521 788c-239 0-360-172-360-314 0-87 33-164 103-192 12-5 22-1 25 12 3 9 8 31 11 40 3 13 2 17-8 28-20 24-33 55-33 99 0 127 95 241 248 241 135 0 209-83 209-193 0-145-64-267-160-267-52 0-91 43-79 97 15 64 45 132 45 178 0 41-22 76-68 76-54 0-97-56-97-131 0-47 16-79 16-79s-55-233-65-274c-19-81-2-181-1-191 1-6 8-7 12-3 5 7 69 86 91 165 6 22 35 138 35 138 17-33 68-63 123-63 161 0 271 148 271 345 0 149-126 288-318 288z" />
<glyph glyph-name="linkedin" horiz-adv-x="1000" unicode="&#xed4d;" d="M871 788h-741c-36 0-65-28-65-63v-750c0-35 29-63 65-63h741c35 0 64 28 64 63v750c0 35-29 63-64 63z m-542-733h-131v395h131v-395z m-66 449h-1c-44 0-72 30-72 68 0 39 29 69 74 69 45 0 73-30 73-69 0-38-28-68-74-68z m539-449h-131v212c0 53-19 89-66 89-37 0-58-25-68-48-3-9-4-20-4-32v-221h-131s1 358 0 395h131v-56c17 27 49 65 118 65 87 0 151-56 151-177v-227z" />
<glyph glyph-name="groups" horiz-adv-x="1000" unicode="&#x13b3f;" d="M496 300c136 0 221-95 221-164 0-25-15-38-58-38l-326 0c-44 0-59 13-59 38 0 69 86 164 222 164z m0 283c57 0 106-50 106-116 0-67-49-119-106-119-57 0-106 52-106 119 0 65 49 116 106 116z" />
<glyph glyph-name="groups" horiz-adv-x="1000" unicode="&#x13b3e;" d="M193 301c47 0 85-14 113-33-57-47-87-124-64-166l3-4-196 0c-36 0-49 15-49 41 0 73 76 162 193 162z m606 0c117 0 193-89 193-162 0-25-12-40-43-41l-6 0-196 0c28 41-2 122-62 170 29 19 67 33 114 33z m-606 246c49 0 92-44 92-101 0-59-42-105-92-105-50 0-92 46-92 104 0 57 42 102 92 102z m606 0c49 0 92-45 92-102 0-58-42-104-92-104-50 0-92 46-92 105 0 57 42 101 92 101z" />
<glyph glyph-name="field-group" horiz-adv-x="1000" unicode="&#x13b1f;" d="M483 341c10 0 19-8 20-17l1-3 0-91 84-84c8-7 8-20 0-28-7-7-18-7-26-2l-2 2-77 75-76-75c-8-7-20-7-28 0-7 7-8 18-3 26l3 2 84 84 0 91c0 11 9 20 20 20z" />
<glyph glyph-name="field-group" horiz-adv-x="1000" unicode="&#x13b1e;" d="M314 92c51-38 86-97 89-164l0-10 0-14c0-21-16-37-36-40l-4 0-323 0c-21 0-38 16-40 36l0 4 0 14c0 72 35 134 89 174 28-31 68-51 112-51 45 0 85 20 113 51z m564 0c51-38 86-97 89-164l0-10 0-14c0-21-16-37-36-40l-5 0-322 0c-21 0-38 16-40 36l0 4 0 14c0 72 35 134 89 174 28-31 67-51 112-51 45 0 85 20 113 51z m-676 205c60 0 109-48 109-108 0-60-49-108-109-108-61 0-110 48-110 108 0 60 49 108 110 108z m563 0c61 0 110-48 110-108 0-60-49-108-110-108-60 0-109 48-109 108 0 60 49 108 109 108z m-169 314c51-37 86-96 89-164l0-9 0-14c0-21-16-38-36-40l-5 0-322 0c-21 0-38 15-40 35l0 5 0 14c0 71 35 134 89 173 28-31 68-50 112-50 45 0 85 19 113 50z m-113 206c61 0 110-49 110-108 0-60-49-109-110-109-60 0-109 49-109 109 0 59 49 108 109 108z" />
<glyph glyph-name="ui-user-group" horiz-adv-x="1000" unicode="&#xec8d;" d="M692 185c-125 76-255 78-380 6-45-26-73-59-87-95h544c-12 34-38 66-77 89z m-195 419c89 0 160-70 160-159 1-88-71-160-159-161-89-1-160 71-160 161 0 89 70 159 159 159z m467-434c-37 32-80 45-127 47-41 1-81-5-118-27 39-30 63-60 74-94h207c0 26-12 53-36 74z m-683 20c-4 3-6 5-9 6-78 33-154 31-224-17-32-22-48-53-48-83h208c13 35 38 66 73 94z m447 154c0 54 44 99 98 99 54 1 100-44 100-98 1-53-45-100-97-100-56-1-101 44-101 99z m-553-98c-56-1-100 42-100 98-1 54 44 99 99 100 53 0 99-45 99-98 1-56-43-100-98-100z" />
<glyph glyph-name="group" horiz-adv-x="1000" unicode="&#xecf4;" d="M753 430c50 0 90 40 90 89 0 50-40 90-90 90-49 0-89-40-89-90 0-49 40-89 89-89z m-506 0c49 0 89 40 89 89 0 50-40 90-89 90-49 0-90-40-90-90 1-49 41-89 90-89z m253 93c73 0 132 59 132 132 0 73-59 133-132 133-73 0-132-60-132-133 0-73 59-132 132-132z m253-128c-14 0-27-2-40-6 17-33 27-69 27-108v-286h156v258c0 79-64 142-143 142z m-649-142v-258h156v286c0 39 11 75 27 108-13 4-26 6-40 6-79 0-143-63-143-142z m396 235c-114 0-207-93-207-207v-369h414v369c0 114-93 207-207 207z" />
<glyph glyph-name="group-students" horiz-adv-x="1000" unicode="&#xeadd;" d="M998-47c0 2 0 4 0 6-2 57-6 114-12 171-5 44-11 87-19 130-5 28-20 46-45 56-15 6-31 12-46 18-9 3-13 1-16-7-13-28-30-52-54-72-20-16-42-31-64-44-12-6-16-14-16-27 1-76 1-152 1-228 0-1 0-1 0-2h-27c0 1 0 1 0 2 0 78 0 156 0 234 0 8-2 13-9 17-14 8-28 17-41 26-21 14-41 30-57 50-12 15-20 31-29 47-2 4-4 8-10 6-23-9-47-16-68-30-12-7-20-17-23-30-16-66-23-132-29-199-3-41-6-82-6-123h0c-1-5-1-10-1-16-1-17 7-25 24-25l262 0 263 0c17 0 25 8 24 25 0 5-1 10-2 15z m-423 545c9-6 13-13 17-22 13-33 28-65 54-90 38-37 88-38 127-3 30 28 49 63 65 100 2 6 5 11 11 15 23 15 27 38 10 60-3 4 0 6 1 9 4 14 8 28 8 42 1 38-15 69-39 96-7 7-7 12-4 19 5 9 10 17 15 26-15-1-26-6-37-12-7-4-9-2-12 4-7 14-9 29-13 45-8-7-12-15-15-23-4-9-7-8-13-3-8 7-15 16-26 22 0-3-1-4-1-5-3-7 6-17-2-21-6-4-15-2-22-2l-1-1c-62-7-106-40-133-94-14-29-11-59-3-90 2-4 5-8 1-13-18-23-7-48 12-59z m31 65c31-2 62 1 92 8 32 8 60 23 85 47 8-27 21-48 41-65 3-3 4-6 3-10-14-48-32-95-67-132-10-10-21-19-35-23-27-7-47 6-64 24-24 27-37 60-48 94-5 16-9 32-14 48-2 8 0 9 7 9z m190-209c-3 0-6 1-8-3-13-34-43-51-70-70-3-2-5-4-9-1-27 19-57 36-71 69-1 3-2 7-6 5-14-3-27-5-40-8-6-1-5-4-3-7 11-17 20-34 34-49 24-27 56-44 86-64 4-3 7-1 10 1 16 11 32 22 49 33 30 19 51 48 68 79 3 4 3 7-4 8-12 2-24 4-36 7z m-402-416c0 5 0 11 0 16h1c0 41 3 82 6 123 1 11 2 22 3 33-22-6-44-11-67-15-25-5-51-11-77-10-25 2-50 7-75 12-46 10-92 22-138 36-7 2-9 0-10-7-7-58-14-116-16-175 0-6 0-10-1-13h0c0-2 0-4 0-7-1-12 6-18 21-18l227 1h147c-15 0-22 8-21 24z m-328 435c7 1 9 2 9 9-2 33 0 65 7 96 5 18 11 34 27 48 4-26 15-48 34-65 5-4 8-10 12-16 14-25 31-48 54-66 34-27 75-28 110-2 25 18 42 43 57 69 3 4 5 8 8 11 17 17 27 37 33 59 1 3 0 8 3 9 5 1 7-4 10-7 13-18 19-38 22-60 4-25 5-50 4-75 0-5-1-9 6-10 40-4 70 23 69 62-1 54-46 109-99 120-8 2-10 6-9 13 1 20 0 41-7 60-22 63-67 100-133 108-67 7-120-21-156-79-16-27-22-56-20-87 1-9-1-13-11-15-30-7-53-25-71-50-15-20-24-43-25-68-1-39 21-66 66-64z m91 163c17 5 25 20 33 34 3 6 6 13 10 22 5-16 4-30 1-44-2-7 0-9 6-10 9 0 16 2 23 8 13 15 20 33 26 51 1 3 1 6 4 9 5-17 3-35 2-52 0-6 2-8 7-9 33-4 65-6 98 1 13 3 13 3 11-9-8-46-27-87-58-122-34-39-77-38-111 1-2 2-3 4-5 6-25 31-41 66-50 105 0 4-3 8 3 9z m8-266c2 22 5 44 7 67-26-8-50-18-73-31-17-10-28-25-33-44-8-27-14-55-20-83-2-9 1-11 9-13 57-18 114-32 173-42 16-3 33-8 50-5 44 7 87 16 130 27 5 43 11 87 22 129 2 10 7 18 14 24-3 2-5 4-8 6-21 13-43 22-66 30-9 3-9-2-8-8 5-23 7-46 8-69 2-19 1-38 1-58-32 19-64 38-96 58-5 3-9 4-15 0-31-19-61-37-91-56-6-3-8-2-7 4 1 22 1 43 3 64z" />
<glyph glyph-name="calendar" horiz-adv-x="1000" unicode="&#x13adb;" d="M811 783c99 0 150-51 150-148l0 0 0-555c0-97-51-148-150-148l0 0-628 0c-98 0-150 51-150 148l0 0 0 555c0 98 52 148 150 148l0 0z m0-222l-628 0c-38 0-59-20-59-60l0 0 0-419c0-40 21-60 59-60l0 0 628 0c38 0 59 20 59 60l0 0 0 419c0 40-21 60-59 60l0 0z" />
<glyph glyph-name="calendar" horiz-adv-x="1000" unicode="&#x13ada;" d="M287 180c15 0 21-4 22-18l0-3 0-27c0-15-5-20-18-21l-4 0-26 0c-15 0-21 4-22 17l0 4 0 27c0 15 5 20 18 21l4 0 26 0z m122 0l27 0c15 0 21-4 22-18l0-3 0-27c0-15-5-20-18-21l-4 0-27 0c-15 0-21 4-21 17l-1 4 0 27c0 15 5 20 19 21l3 0 27 0z m176 0c16 0 22-5 22-21l0-27c0-16-6-21-22-21l-27 0c-16 0-21 5-21 21l0 27c0 16 5 21 21 21l27 0z m-298 146c15 0 21-4 22-17l0-4 0-27c0-15-5-20-18-21l-4 0-26 0c-15 0-21 4-22 18l0 3 0 27c0 15 5 20 18 21l4 0 26 0z m149 0c15 0 21-4 22-17l0-4 0-27c0-15-5-20-18-21l-4 0-27 0c-15 0-21 4-21 18l-1 3 0 27c0 15 5 20 19 21l3 0 27 0z m149 0c15 0 21-4 22-17l0-4 0-27c0-15-5-20-18-21l-4 0-27 0c-15 0-21 4-21 18l0 3 0 27c0 15 4 20 18 21l3 0 27 0z m149 0c15 0 21-4 22-17l0-4 0-27c0-15-5-20-19-21l-3 0-27 0c-15 0-21 4-21 18l0 3 0 27c0 15 4 20 17 21l4 0 27 0z m-298 147c15 0 21-4 22-18l0-3 0-27c0-15-5-20-18-21l-4 0-27 0c-15 0-21 4-21 17l-1 4 0 27c0 15 5 20 19 21l3 0 27 0z m149 0c15 0 21-4 22-18l0-3 0-27c0-15-5-20-18-21l-4 0-27 0c-15 0-21 4-21 17l0 4 0 27c0 15 4 20 18 21l3 0 27 0z m149 0c15 0 21-4 22-18l0-3 0-27c0-15-5-20-19-21l-3 0-27 0c-15 0-21 4-21 17l0 4 0 27c0 15 4 20 17 21l4 0 27 0z" />
<glyph glyph-name="ui-calendar" horiz-adv-x="1000" unicode="&#xec45;" d="M930 676c0 50-28 75-78 74-17-1-20-7-20-22 1-25 1-51 0-76-2-41-26-66-67-69-21-2-43-2-64 0-43 3-68 29-69 73 0 24-1 48 0 72 1 16-4 22-20 22-75-1-150-1-225 0-17 0-20-8-19-22 0-25 0-51 0-76-1-38-23-64-61-68-23-3-47-3-70-1-43 2-66 27-68 70-1 25-1 51 0 76 1 16-5 20-21 21-51 1-78-25-78-77 0-248 0-497 0-746 0-53 23-77 77-77 235 0 471 0 706 0 54 0 77 23 77 77 0 124 0 249 0 373 0 126 0 251 0 376z m-762-177c0 13 6 18 19 18 55 0 110 0 164 0 12 0 17-5 17-16-1-45-1-90 0-135 0-14-8-16-20-16-27 0-54 0-81 0-27 0-54 0-81 0-13 0-18 5-18 18 0 44 0 87 0 131z m200-531c0-14-5-20-19-20-53 1-106 1-159 0-16 0-22 6-22 21 1 43 0 86 0 129 0 13 5 18 18 18 27-1 54 0 81 0 27 0 54-1 81 0 15 0 20-4 20-19-1-43-1-86 0-129z m-23 181c-26 1-52 0-78 0-25 0-51 1-76 0-16-1-24 4-23 21 1 42 1 85 0 127 0 16 6 20 22 20 52-1 104-1 157 0 18 1 21-7 21-23-1-41-1-82 0-123 1-18-6-23-23-22z m75 368c53 0 106 0 159 0 15 1 20-5 20-19 0-43-1-86 0-129 0-16-6-19-20-19-27 1-54 0-81 0-27 0-53 1-79 0-13 0-18 5-18 18 1 44 1 88 0 132 0 14 6 17 19 17z m-19-220c0 15 4 20 19 20 53-1 107-1 160 0 15 0 19-5 19-20 0-43 0-86 0-129 0-14-5-20-19-19-27 1-54 0-81 0-26 0-51 1-76 0-15-1-22 2-22 20 1 42 1 85 0 128z m198-326c1-17-6-23-22-23-52 1-103 1-155 0-15 0-22 5-21 21 1 42 1 84 0 126 0 16 5 22 21 21 26-1 52 0 78 0 26 0 51-1 76 0 16 1 24-4 23-22-1-41-1-82 0-123z m33 527c0 14 5 20 19 19 54 0 107 0 160 0 15 1 22-4 22-20-1-43-1-86 0-129 0-13-5-18-19-18-28 0-56 0-84 0-25 0-50 1-75 0-16-1-24 4-23 22 1 42 1 84 0 126z m200-532c1-13-6-18-18-18-55 1-110 1-165 0-12 0-17 6-17 17 0 45 0 90 0 135 0 15 9 16 20 16 27 0 54 0 81 0 27 0 54-1 81 0 13 0 19-5 18-18 0-44 0-88 0-132z m-23 183c-26 1-52 0-78 0-27 0-54 1-81 0-13 0-18 5-18 18 0 44 1 88 0 131 0 16 6 19 20 19 53 0 106 0 159 0 16 0 22-5 22-21-1-42-1-84 0-125 0-19-8-23-24-22z m-537 468c34 2 60 29 62 64 1 18 0 36 0 53 0 17 1 34 0 51-2 35-27 62-61 65-34 2-64-21-69-56-5-40-5-81 0-120 4-36 35-59 68-57z m458 0c37-2 66 27 69 67 1 16 0 31 0 47h0c0 18 1 36-1 54-2 38-31 65-67 65-35-1-64-29-65-67-1-33-1-66 0-98 1-39 28-67 64-68z" />
<glyph glyph-name="calendar" horiz-adv-x="1000" unicode="&#xeecd;" d="M739 697c0 13 0 25 0 37-1 23-15 43-38 51-23 7-48-1-62-19-8-11-12-23-12-36v-33c0-5-4-9-9-9h-59c-5 0-10 4-10 9 0 11 1 22 0 33 0 26-13 46-35 54-37 13-75-12-76-50 0-12 0-24 0-37 0-5-4-9-10-9h-60c-5 0-10 4-10 9 1 16 2 31 0 45-2 21-16 36-36 43-20 6-39 2-55-11-15-12-19-28-19-46 0-11 0-21 0-31 0-6-4-10-10-10h-164c-6 0-10-4-10-9v-756c0-5 5-9 10-9h852c5 0 10 4 10 9v756c0 5-5 9-10 9h-178c-5 0-9 4-9 10z m-413-747h-214c-6 0-10 4-10 9v150c0 5 5 9 10 9h214c5 0 9-4 9-9v-150c0-5-4-9-9-9z m0 207h-214c-6 0-10 4-10 9v158c0 5 5 9 10 9h214c5 0 9-4 9-9v-158c0-5-4-9-9-9z m0 215h-214c-6 0-10 4-10 9v152c0 5 5 9 10 9h214c5 0 9-4 9-9v-152c0-5-4-9-9-9z m285-422h-227c-5 0-9 4-9 9v149c0 5 4 10 9 10h227c5 0 9-5 9-10v-149c0-5-4-9-9-9z m10 212c-1-3-5-6-10-6h-227c-5 0-9 5-9 10v158c0 5 2 9 5 10l6 0c74 0 149 0 223 0 9 0 12-2 12-11 0-52 0-104 0-156 0-2 0-4 0-5z m0 215c0-3-4-5-10-5h-227c-5 0-9 4-9 9v152c0 5 2 10 5 10h6c74 0 149 0 223 0 9 0 12-2 12-12 0-49 0-99 0-149v-5h0z m48-44h219c5 0 9-4 9-9v-158c0-5-4-10-9-10h-219c-6 0-10 5-10 10v158c0 5 4 9 10 9z m219-383h-219c-6 0-10 4-10 9v149c0 6 4 10 10 10h219c5 0 9-4 9-10v-149c1-5-4-9-9-9z m0 422h-219c-6 0-10 4-10 9v152c0 5 4 9 10 9h219c5 0 9-4 9-9v-152c1-5-4-9-9-9z" />
<glyph glyph-name="ui-cell-phone" horiz-adv-x="1000" unicode="&#xec49;" d="M712 850h-54c-21 0-39-17-39-39v-57h-293c-42 0-77-35-77-78v-749c0-42 35-77 77-77h348c42 0 77 35 77 77v884c0 22-17 39-39 39z m-303-918h-92v92h92v-92z m0 137h-92v92h92v-92z m136-137h-92v92h92v-92z m0 137h-92v92h92v-92z m136-137h-91v92h91v-92z m0 137h-91v92h91v-92z m15 190c0-21-18-38-39-38h-313c-22 0-39 17-39 38v365c0 21 17 38 39 38h313c21 0 39-17 39-38v-365z" />
<glyph glyph-name="ui-touch-phone" horiz-adv-x="1000" unicode="&#xec8a;" d="M716 850h-431c-48 0-87-39-87-87v-826c0-48 39-87 87-87h431c48 0 87 39 87 87v826c0 48-39 87-87 87z m-287-36h142c8 0 13-4 13-9 0-4-5-8-13-8h-142c-7 0-13 4-13 8 0 5 6 9 13 9z m71-920c-37 0-67 30-67 67 0 37 30 68 67 68s68-31 68-68c0-37-31-67-68-67z m253 206c0-24-20-44-43-44h-419c-24 0-44 20-44 44v620c0 24 20 43 44 43h419c23 0 43-19 43-43v-620z" />
<glyph glyph-name="mobile-phone" horiz-adv-x="1000" unicode="&#xef9b;" d="M664 685c-17 0-30 14-30 31v40c0 18-13 32-30 32h-20c-16 0-29-14-29-32v-40c0-17-14-31-30-31h-188c-16 0-29-14-29-32v-709c0-18 13-32 29-32h327c16 0 29 14 29 32v709c0 18-13 32-29 32z m-262-684c-16 0-30 15-30 32s14 31 30 31c16 0 30-14 30-31s-14-32-30-32z m0 105c-16 0-30 14-30 31s14 32 30 32c16 0 30-15 30-32s-14-31-30-31z m0 104c-16 0-30 14-30 31s14 32 30 32c16 0 30-14 30-32s-14-31-30-31z m97-209c-17 0-30 15-30 32s13 31 30 31c16 0 29-14 29-31s-13-32-29-32z m0 105c-17 0-30 14-30 31s13 32 30 32c16 0 29-15 29-32 0-17-13-31-29-31z m0 104c-17 0-30 14-30 31s13 32 30 32c16 0 29-14 29-32 0-17-13-31-29-31z m96-209c-16 0-30 15-30 32s14 31 30 31c16 0 30-14 30-31s-14-32-30-32z m0 105c-16 0-30 14-30 31s14 32 30 32c16 0 30-15 30-32s-14-31-30-31z m0 104c-16 0-30 14-30 31s14 32 30 32c16 0 30-14 30-32s-14-31-30-31z m48 196c0-17-13-32-29-32h-227c-16 0-29 15-29 32v173c0 18 13 32 29 32h227c16 0 29-14 29-32v-173z" />
<glyph glyph-name="smart-phone" horiz-adv-x="1000" unicode="&#xefec;" d="M705 788h-410c-19 0-34-16-34-35v-806c0-19 15-35 34-35h410c19 0 35 16 35 35v806c0 19-16 35-35 35z m-238-802c0 19 15 34 33 34 19 0 34-15 34-34 0-18-15-33-34-33s-33 15-33 33z m-180 58v637h427v-637h-427z" />
<glyph glyph-name="phone" horiz-adv-x="1000" unicode="&#xefbb;" d="M391 497c-121-70 63-414 195-338l122-211c-56-32-103-53-167-16-179 102-376 443-370 646 2 71 43 99 98 130 23-40 98-171 122-211z m50 5c-13-7-30-3-37 10l-115 200c-8 13-3 29 10 37l60 35c13 7 30 3 38-10l115-199c7-13 3-30-10-38l-61-35z m315-544c-13-8-30-3-38 10l-115 199c-7 13-3 30 10 38l61 34c13 8 29 4 37-10l115-199c8-13 3-30-10-37l-60-35z" />
<glyph glyph-name="phone-circle" horiz-adv-x="1000" unicode="&#xefba;" d="M426 450c-82-47 43-281 132-230l83-143c-38-22-70-36-113-11-122 70-256 301-252 439 1 48 30 67 67 88 16-27 67-116 83-143z m34 4c-9-5-20-2-25 6l-79 136c-5 9-2 20 7 25l41 24c9 5 21 2 26-7l78-135c5-9 2-21-7-26l-41-23z m214-370c-9-6-21-3-26 6l-78 136c-5 9-2 20 7 25l41 24c9 5 20 2 25-7l79-135c5-9 2-21-7-26l-41-23z m-174 704v-1c121 0 230-48 309-128 79-79 128-188 128-309h1-1c0-121-48-230-128-309-79-79-188-128-309-128v-1 1c-121 0-230 48-309 128-79 79-128 188-128 309h0 0c0 121 49 230 128 309 79 79 188 128 309 128v1z m0-53v0 0c-106 0-203-43-272-113-70-69-113-166-113-272h0 0c0-106 43-203 113-272 69-70 166-113 272-113v0 0c106 0 203 43 272 113 70 69 113 166 113 272h0 0c0 106-43 203-113 272-69 70-166 113-272 113z" />
<glyph glyph-name="telephone" horiz-adv-x="1000" unicode="&#xf008;" d="M857 290c-112 33-203 93-203 207 0 18-11 32-28 32s-30-13-30-29-15-28-33-28h-127c-18 0-33 13-33 28s-13 29-30 29-26-14-26-32c3-57-16-170-199-209-18-4-33-7-35-7-1-1-2-16-2-34v-192c0-18 15-33 33-33h712c18 0 33 15 33 33v224s0 1 0 2c0 0-14 4-32 9z m-310 29l36 37c5 6 14 6 20 0s6-15 0-21l-36-38c-5-6-14-6-20 0-5 6-5 16 0 22z m-62 68c0 8 6 15 14 15 0 0 0 0 0 0 1 0 1 0 1 0 8 0 14-7 14-15v-54c0-8-6-15-14-15 0 0 0 0-1 0 0 0 0 0 0 0-8 0-14 7-14 15v54z m-132-140c0 8 6 15 14 15h51c7 0 14-7 14-15 0-9-7-16-14-16h-51c-8 0-14 7-14 16z m99-73l-36-37c-6-6-14-6-20 0s-6 15 0 21l35 38c6 6 15 6 21 0 5-6 5-16 0-22z m0 123c-6-6-15-6-21 0l-35 38c-6 6-6 15 0 21s14 6 20 0l36-37c5-6 5-16 0-22z m62-191c0-8-6-15-14-15 0 0 0 0-1 0 0 0 0 0 0 0-8 0-14 7-14 15v54c0 8 6 15 14 15 0 0 0 0 0 0 1 0 1 0 1 0 8 0 14-7 14-15v-54z m-14 105h-1c-19 0-34 16-34 36 0 19 15 35 34 35h1c19 0 33-16 33-35 1-20-14-36-33-36z m103-74c-6-6-15-6-20 0l-36 37c-5 6-5 16 0 22s15 6 20 0l36-38c5-6 5-15 0-21z m29 94h-51c-7 0-14 7-14 16 0 8 6 15 14 15h51c7 0 14-7 14-15 0-9-7-16-14-16z m-210 328c51 4 114 5 176 0 44-4 95-3 95-32h243c-5 33-73 147-425 151-371 3-449-118-448-151h242c0 27 40 26 117 32z m-141-133c15 0 24 13 24 25v50h-242s0-53 0-53c0-13 9-22 27-22h-3 194z m657 75h-243v-50c0-12 9-25 24-25h194-3c18 0 27 9 27 22 0 0 1 53 1 53z" />
<glyph glyph-name="iphone" horiz-adv-x="1000" unicode="&#xea3b;" d="M673 850h-346c-37 0-67-30-67-67v-866c0-37 30-67 67-67h346c37 0 67 30 67 67v866c0 37-30 67-67 67z m-213-55c0 6 5 10 11 10h58c6 0 11-4 11-10v-19c0-6-5-11-11-11h-58c-6 0-11 5-11 11v19z m45-900c-24 0-44 19-44 43s20 44 44 44 43-19 43-44c0-24-19-43-43-43z m195 115h-400v720h400v-720z" />
<glyph glyph-name="phone" horiz-adv-x="1000" unicode="&#x13b7f;" d="M542 723l5 0c170-22 304-155 325-326 3-23-13-44-36-47-2 0-3 0-5 0-21 0-39 15-41 37-17 132-121 236-253 253-23 2-39 23-37 46 3 23 24 39 47 37z m-40-201c6 22 28 36 51 30 72-19 130-76 149-150 6-22-8-45-30-51-3-1-7-1-10-1-19 0-36 13-41 31-11 44-46 79-89 90-23 6-36 28-30 51z" />
<glyph glyph-name="phone" horiz-adv-x="1000" unicode="&#x13b7e;" d="M801 214l-106 12c-25 3-50-6-68-23l-77-77c-117 60-214 156-274 274l77 78c18 17 27 42 24 68l-12 105c-5 42-41 74-83 74l-72 0c-47 0-87-40-84-87 22-355 307-640 662-662 47-3 87 37 87 84l0 72c0 42-32 77-74 82z" />
<glyph glyph-name="user" horiz-adv-x="1000" unicode="&#x13d06;" d="M499 850c277 0 501-224 501-499 0-277-224-501-501-501-275 0-499 224-499 501 0 275 224 499 499 499z m0-67c-238 0-432-194-432-432 0-240 194-432 432-432 240 0 432 192 432 432 0 238-192 432-432 432z" />
<glyph glyph-name="user" horiz-adv-x="1000" unicode="&#x13d13;" d="M635 250c82 0 154-59 170-136-72-91-181-149-306-149-123 0-235 58-304 149 16 77 85 136 168 136l272 0z m-136 381c93 0 168-75 168-168 0-92-75-168-168-168-93 0-168 76-168 168 0 93 75 168 168 168z" />
<glyph glyph-name="ui-user" horiz-adv-x="1000" unicode="&#xec8e;" d="M859 47c-230 139-469 144-700 11-82-47-134-109-159-176h1000c-22 64-69 122-141 165z m-359 771c163 0 294-130 295-292 1-162-131-295-293-297-164-1-295 131-296 296 0 163 130 293 294 293z" />
<glyph glyph-name="user" horiz-adv-x="1000" unicode="&#xed05;" d="M670 390c-5 2-10 3-15 4-45-28-98-44-155-44-57 0-111 16-156 45-118-26-208-135-211-252-1-62-3-124-3-186 0-58-4-60 26-67 0 0 379-89 689-1 16 6 26 15 25 35-1 71 2 143-1 214-5 119-83 220-199 252z m-168 27c118 2 214 98 214 217 0 120-94 215-213 216-121 1-219-96-220-215-1-119 101-220 219-218z" />
<glyph glyph-name="user-suited" horiz-adv-x="1000" unicode="&#xed04;" d="M500 372c-129 1-231 104-231 235 0 123 107 229 231 228 128-1 231-105 231-233 0-125-104-230-231-230z m-266-506c-71 0-141 0-211-1-17 0-24 4-23 23 5 145 54 273 150 381 30 35 67 63 106 88 21 14 27-2 33-17 25-62 50-125 75-188 34-84 68-168 102-252 12-31 10-34-25-34-69 0-138 0-207 0v0z m528 0c-70 0-140 0-210 0-27 0-30 4-20 28 60 150 120 299 180 448 10 25 15 26 39 11 139-92 213-225 242-387 4-26 4-52 7-79 2-18-6-21-22-21-72 0-144 0-216 0z m-262 60c-22 55-42 103-61 151-20 48-38 96-58 144-7 16-8 25 8 36 33 22 64 46 95 70 11 9 19 10 31 1 32-25 65-49 99-73 8-7 14-12 9-25-41-99-80-198-123-304z" />
<glyph glyph-name="user-male" horiz-adv-x="1000" unicode="&#xed03;" d="M500-149h-357c-16 0-31 1-45 9-24 13-38 33-38 61 0 39 1 79 0 119-1 41 16 74 47 101 31 26 66 43 103 57 55 21 108 47 161 72 8 4 11 9 12 17 2 19 4 38 6 57 0 5-1 9-5 12-31 32-52 69-63 112-2 6-5 8-12 9-12 1-20 9-23 21-4 22-6 44-10 65-3 14 2 24 14 29 6 3 7 5 6 12-7 36-4 71 5 106 17 64 73 114 133 117 16 0 30 3 44 11 25 14 52 16 79 7 73-25 123-73 144-148 8-30 4-61 0-91 0-7-2-11 7-13 13-4 19-14 16-28-3-22-7-44-11-67-2-13-11-21-24-21-6-1-10-3-11-9-7-42-30-76-59-105-8-8-10-15-8-25 2-15 4-31 5-46 0-12 5-18 16-23 58-28 117-55 177-79 30-13 59-28 85-50 29-26 46-58 46-97 0-41 0-82-1-122 0-36-25-64-61-68-39-5-79-2-119-2-86-1-173 0-259 0z" />
<glyph glyph-name="user-female" horiz-adv-x="1000" unicode="&#xed02;" d="M913 208l-214 102-91 43c0 1 2 2 6 2l2 3h118c23 0 34 11 34 32v88h-2c-4 125-40 224-110 297-37 41-79 65-125 72h-11l-3 3h-32l-5-3h-11c-46-7-87-30-123-70-71-74-108-174-112-299v-88c0-21 11-32 32-32h121l5-5c2-2 3-3 5-3l-88-40-222-102c-21-8-32-27-32-56v-243c0-16 5-30 15-41 10-12 22-18 36-18h788c14 0 26 6 36 18 10 11 15 25 15 41v243c0 29-11 48-32 56z" />
<glyph glyph-name="user-alt-7" horiz-adv-x="1000" unicode="&#xed01;" d="M969 31c-44 122-121 217-234 281-6 3-10 4-16-1-61-51-131-79-211-81-85-2-161 25-226 80-7 5-11 5-17 2-46-26-87-58-122-96-75-81-121-176-137-285-2-15-4-29-6-44v-33c329 0 659 0 988 0 9 0 12 2 12 11-2 57-11 112-31 166z m-474 260c159-1 284 123 283 280-2 158-130 276-278 275-156 0-278-124-277-281 1-148 121-272 272-274z" />
<glyph glyph-name="user-alt-6" horiz-adv-x="1000" unicode="&#xed00;" d="M361 397c-156 117-128 294-43 378 100 101 260 100 357-2 87-90 104-260-42-374 74-30 133-78 179-141 85-116 115-247 105-390-1-20-13-18-26-18-152 0-305 0-457 0-109 0-219 1-328 0-16 0-23 3-24 20-11 190 44 353 193 477 26 21 55 36 86 50z" />
<glyph glyph-name="user-alt-5" horiz-adv-x="1000" unicode="&#xecff;" d="M939 15c-42 115-114 203-220 263-5 3-9 3-14-1-57-48-123-74-197-76-80-1-151 24-212 75-6 5-10 5-16 2-42-24-81-54-114-90-70-75-112-164-128-266-2-14-3-27-5-41v-31c308 0 615 0 923 0 8 0 11 2 11 11-2 53-10 104-28 154z m-439 270c156 1 282 127 282 284 0 155-127 281-282 281-157 0-282-127-282-284 1-155 128-281 282-281z m174 175c-47-51-99-90-169-92-73-3-125 39-172 92h341z" />
<glyph glyph-name="user-alt-4" horiz-adv-x="1000" unicode="&#xecfe;" d="M838 142c-42 28-89 44-134 65l-25 11c-42 19-57 58-39 101 12 27 22 55 27 84 1 6 2 11 10 10 15-1 24 9 28 22 8 24 16 48 23 72 2 10 3 19 1 29-2 9-7 18-17 19-12 0-13 5-13 15 2 16 2 32 5 48 15 111-61 213-172 229-3 1-6 2-9 3h-43c-6-5-14-3-21-5-108-25-173-121-159-232 2-16 5-31 4-47 0-6-1-10-9-11-16-2-20-13-21-27-1-20 8-37 13-56 2-10 6-19 9-29 5-18 12-31 33-30 6 1 7-3 8-8 5-31 15-61 28-90 11-23 6-47-5-70-6-14-19-19-31-25-43-20-87-36-129-58-14-7-27-15-39-24-20-14-35-32-42-56-14-47-19-95-10-143 7-32 26-53 58-63 32-10 64-14 97-17 44-4 88-6 133-7 4 0 9-1 14-2h177c37 2 75 4 112 6 42 2 84 7 126 17 44 10 65 35 69 81 3 43-2 86-13 129-7 26-22 44-44 59z" />
<glyph glyph-name="user-alt-3" horiz-adv-x="1000" unicode="&#xecfd;" d="M499-122c-160 0-319 1-478 0-17 0-19 6-20 20-8 101 52 156 131 199 50 27 106 43 158 65 21 9 42 18 60 32 23 18 28 39 13 64-12 19-26 37-39 56-65 98-89 204-61 319 27 116 125 193 244 189 100-3 174-52 214-144 53-125 30-244-40-357-11-19-26-36-38-54-23-33-18-58 17-80 40-25 84-39 128-55 61-22 119-50 166-98 41-41 49-92 45-147-1-12-9-9-15-9-57 0-114 0-171 0-105 0-209 0-314 0v0z" />
<glyph glyph-name="users-alt-1" horiz-adv-x="1000" unicode="&#xed06;" d="M416 0c0 37 0 74 1 111 0 4-2 7-5 9-31 20-61 41-92 61-3 2-4 4-4 7-9 73-18 146-28 219-1 13-3 26-5 39 0 3 1 4 4 5 33 8 66 15 100 20 40 7 80 12 121 12 29 1 58-1 87-5 50-6 101-15 151-27 3-1 4-2 3-5-5-41-10-83-15-124-6-44-11-88-17-132 0-5-2-8-6-11-30-20-60-40-90-60-3-2-4-4-4-7 0-75 0-149 0-223 0-5-2-7-5-9-24-13-48-24-75-28-23-4-46-1-68 6-17 6-33 13-49 23-3 1-4 4-4 7 1 37 0 75 0 112z m-66 45v-91c0-2 0-4-2-5-20-14-41-25-65-31-19-4-37 0-54 7-15 5-29 13-42 22-3 2-4 4-4 8 0 63 0 127 0 190 0 4-1 6-4 9-20 20-40 40-60 60-2 2-3 4-3 7-6 40-12 81-18 121-4 34-9 68-14 102-1 5 0 7 5 8 42 12 84 22 128 28 10 1 19 2 29 3 3 0 4-1 5-4 3-30 6-61 10-91l11-100c3-34 7-67 11-100 0-3 1-5 4-7 19-13 38-26 58-38 4-3 5-5 5-10 0-30 0-59 0-88z m0 638c0 93 74 167 167 167 92 0 166-75 166-167 0-92-75-166-167-166-92 0-166 74-166 166z m300-650c0 27 0 53 0 79 0 4 1 6 4 7 30 21 61 41 92 62 3 2 4 4 4 7 6 52 12 104 18 155 4 44 9 88 14 132 0 4 1 4 5 4 43-7 84-18 125-32 4-1 5-3 4-7-4-33-7-65-11-98-5-42-9-83-14-125 0-5-2-9-6-12-22-17-43-35-65-52-2-2-3-4-3-8 0-63 0-127 0-190 0-4-1-6-4-8-15-10-30-18-46-24-24-9-48-8-71 1-15 7-29 14-43 23-2 2-3 4-3 7v79z m-364 751c15-1 32-4 48-10 3-2 3-3 2-6-34-78-24-150 31-216 2-3 2-4-1-6-77-61-189-22-212 72-17 67 19 133 84 157 14 6 30 9 48 9z m597-137c0-67-53-124-123-130-35-2-66 8-93 29-3 2-3 3-1 6 38 44 55 95 49 152-2 23-8 44-18 64-1 3-1 4 2 6 78 32 168-18 182-101 2-7 2-15 2-26z" />
<glyph glyph-name="users-alt-2" horiz-adv-x="1000" unicode="&#xed07;" d="M523-96c-88-1-160 17-226 55-78 44-104 99-88 194 18 103 70 185 154 247 13 10 20 8 30-3 30-33 62-65 92-98 10-11 16-13 26 0 26 34 54 65 81 98 8 11 15 14 28 6 102-65 159-157 178-276 19-120-57-165-142-198-46-18-95-26-133-25z m-27 505c-87-1-161 74-161 163 0 86 73 159 160 160 88 2 164-72 164-159 1-91-72-164-163-164z m202 89c19-20 38-39 55-58 8-9 13-9 20 0 21 26 42 50 63 75 7 10 13 13 24 5 92-60 138-145 140-254 1-34-18-59-44-79-28-22-60-36-94-45-12-4-16 0-18 11-20 115-78 206-172 275-5 4-11 8-4 16 12 16 20 35 30 54z m-404 6c10-21 18-41 31-57 8-10-2-13-7-17-73-59-123-132-148-223-5-17-9-35-11-53-1-9-3-14-14-11-45 15-87 34-119 70-32 36-28 78-20 119 14 76 53 138 115 185 12 9 20 9 30-3 22-25 47-49 69-74 9-10 14-9 21 1 16 21 34 40 53 63z m471 292c52-1 92-25 114-74 22-49 14-95-21-135-35-39-79-52-130-38-13 4-19 8-19 23 1 53-18 99-52 138-8 9-8 15-2 24 25 40 61 61 110 62z m-660-125c0 55 37 104 90 120 53 16 110-5 141-50 8-13 11-21-1-35-34-38-50-83-50-134 0-13-4-18-16-22-81-26-165 36-164 121z" />
<glyph glyph-name="users-alt-3" horiz-adv-x="1000" unicode="&#xed08;" d="M499 47c-100 0-199 1-299 0-11 0-12 4-13 13-4 63 33 97 82 124 32 17 67 27 100 41 13 6 26 11 37 20 14 11 17 25 8 40-7 12-16 23-24 35-41 61-56 128-39 200 18 72 79 121 154 118 62-1 109-32 133-90 34-78 19-153-25-224-7-11-16-22-24-33-14-21-11-37 11-50 25-16 53-25 80-35 39-14 75-31 104-61 26-26 31-58 28-92 0-8-5-5-9-5-36-1-71-1-107-1-66 0-131 0-197 0v0z m421 88c-23 0-45 0-68 0-4 0-8 0-10 5-29 52-76 80-129 101-23 9-47 18-70 27-9 3-12 6-5 15 44 60 66 126 61 200-3 49-19 94-51 132-6 7-4 10 2 14 65 44 165 26 199-61 27-71 12-138-30-199-5-8-12-16-17-24-9-15-7-28 7-38 18-13 39-20 59-28 33-11 66-24 94-47 29-23 41-53 38-90-1-7-5-7-10-7-23 0-46 0-70 0z m-552 139c-17-10-36-15-53-22-26-10-52-21-76-33-34-18-60-44-79-77-3-5-6-7-11-7-47 0-94 0-141 0-7 0-7 3-7 8-5 47 18 78 55 102 22 14 46 24 70 32 20 7 41 15 59 26 21 13 24 26 10 46-14 21-30 40-39 64-22 57-27 114 2 170 37 70 128 91 192 46 6-4 8-6 3-13-45-53-58-115-51-182 5-58 26-110 63-155 1-2 2-3 3-5z" />
<glyph glyph-name="users-alt-4" horiz-adv-x="1000" unicode="&#xed09;" d="M556 231c-45 18-88 38-132 59-8 3-11 8-12 17 0 11-1 23-3 34-1 7 0 13 6 18 22 22 39 47 44 79 1 4 3 6 8 6 10 0 16 6 18 16 3 16 5 33 8 50 2 10-2 17-12 20-7 2-6 5-5 10 3 22 6 45 0 67-16 56-53 92-107 110-20 7-40 5-59-5-10-6-21-4-33-5-45-1-85-42-98-90-7-26-9-52-4-79 1-4 0-6-4-8-9-4-13-12-11-22 3-16 5-32 8-48 2-9 8-15 17-16 5 0 7-2 9-7 8-32 24-59 47-82 2-3 4-6 3-10-2-14-3-28-4-42-1-6-3-10-9-13-40-18-79-37-119-53-28-10-54-23-77-42-23-20-36-45-35-75 1-30 0-59 0-89 0-21 10-35 28-45 11-6 22-7 34-7 88 0 176 0 264 0 65 0 129 0 193 0 30 0 59-2 88 2 27 3 45 24 46 50 0 30 0 61 0 91 0 29-12 53-34 72-19 16-41 28-63 37z m444-112c-1 22-11 38-29 49-14 8-30 13-45 17-37 9-75 18-112 29-12 4-18 12-18 24 0 4 0 8-1 12-2 7 1 8 7 9 39 2 75 12 110 29 15 7 16 7 5 20-26 31-42 65-45 106-1 23 0 47-1 71 0 21-4 41-14 60-12 25-32 39-59 41-9 0-16 0-20 10-3 7-11 11-19 13-15 5-30 4-46 2-48-4-84-26-104-72-11-24-15-51-17-77-2-24-1-49-5-72-4-25-8-50-25-70-8-10-18-17-28-25 6-5 11-8 17-11 35-18 72-25 110-26 16-1 16-1 14-16 0-2 0-5 0-8-1-9-5-15-14-17-8-3-9-5-3-12 21-23 31-49 31-80-1-26-1-51 0-77 0-23-1-46-16-67 5-1 8-1 11-1 68 0 136 0 204 0 25 0 49-1 74 1 22 1 38 18 38 40 0 33 0 65 0 98z" />
<glyph glyph-name="users-alt-5" horiz-adv-x="1000" unicode="&#xed0a;" d="M742 208c-28 19-60 31-91 45-5 2-11 4-17 7-28 13-39 40-27 69 8 19 15 38 19 58 0 4 1 7 7 6 10 0 16 6 19 15 5 16 10 33 15 49 2 7 2 13 1 20-1 6-5 12-12 13-7 0-9 4-8 10 1 11 1 22 3 33 10 76-42 145-117 156-2 0-4 1-7 2h-29c-4-4-9-2-14-3-73-17-118-83-108-159 1-10 3-21 2-32 0-4-1-6-5-7-11-1-15-9-15-19-1-13 5-25 9-37 1-7 4-14 6-21 3-11 8-20 22-20 4 0 5-2 6-5 4-21 10-42 19-61 7-17 4-33-3-48-4-10-13-14-22-17-29-14-59-25-88-40-9-5-18-10-26-16-14-10-24-22-29-39-9-32-13-64-6-97 4-22 17-36 39-43s44-9 66-11c30-3 60-4 91-5 3 0 6-1 9-2h121c26 2 51 3 76 5 29 1 58 4 86 11 31 7 45 24 47 55 2 30-1 59-9 88-4 18-15 30-30 40z m-457 28c17 9 33 17 50 24 3 2 7 2 10 6-13 6-25 10-36 16-22 10-30 29-22 51 6 16 12 32 15 48 1 4 2 6 6 6 9 0 13 5 15 12 4 13 8 26 12 39 2 5 2 10 0 15-1 7-7 12-13 10-12-5-11 2-10 9 2 14 4 28 4 43 0 63-58 111-120 100-49-9-85-52-84-102 0-14 1-29 3-43 1-4 3-10-5-9-15 2-20-2-18-17 2-17 8-33 14-49 2-5 6-8 11-8 5 0 8-2 9-7 3-16 8-31 14-46 9-23 0-42-22-53-23-10-45-19-67-30-30-13-46-36-49-68 0-3 0-7-2-10v-33c2-1 2-3 2-5 3-18 13-31 31-36 10-4 21-6 32-7 49-7 98-6 148-8 6 0 8 2 8 9-2 15 0 30 1 45 6 43 23 78 63 98z m707-38c-3 14-12 24-24 32-22 13-46 21-68 32-20 9-27 27-19 48 3 5 5 8 11 9 18 3 36 7 53 14 13 6 26 13 35 26 3 5 4 9-4 12-10 4-18 10-24 19-14 18-18 40-20 61-3 22-4 43-11 64-21 59-93 89-149 61-40-20-58-56-67-98-5-26-6-53-17-78-6-15-16-26-33-28-8-2-7-5-4-10 5-10 13-17 22-22 21-12 45-17 69-21 3-1 7-1 9-4 9-17 9-44-14-52-8-3-16-7-24-11 2-2 2-2 3-3 5-2 10-5 15-7 29-15 55-34 64-69 6-23 9-46 9-70 0-10 3-12 13-11 17 1 35 0 53 1 31 1 63 2 93 8 19 4 32 13 35 33 0 1 1 2 2 2v28c-3 11-5 22-8 34z" />
<glyph glyph-name="users-alt-6" horiz-adv-x="1000" unicode="&#xed0b;" d="M384 297c-99 74-81 185-27 239 63 63 164 63 226-2 54-57 65-164-27-236 47-19 84-50 113-89 54-74 72-157 67-247-1-12-9-11-17-11-96 0-193 0-289 0-69 0-138 0-207 0-10 0-15 2-16 12-7 120 28 224 123 302 16 13 34 23 54 32z m287 185c-37 28-61 62-66 108-6 71 38 135 107 154 68 19 141-15 170-80 27-61 12-127-39-170-3-3-19-7-3-15 90-44 135-121 154-216 6-30 8-60 5-90-1-10-4-14-15-14-84 1-167 1-251 0-10 0-14 4-18 12-26 52-62 95-112 125-10 6-10 9-2 17 33 38 48 82 42 132-2 18 2 27 18 33 3 1 5 2 10 4z m-494-121c-58 46-84 103-64 174 18 61 62 99 125 109 61 9 111-11 149-60-119-69-117-210-40-283-24-15-47-32-66-54-56-61-87-133-92-216-1-12-4-17-17-17-51 1-102 1-153 0-14 0-17 6-18 17-9 123 45 268 172 327 1 1 2 2 4 3z" />
<glyph glyph-name="users-social" horiz-adv-x="1000" unicode="&#xed0c;" d="M609 55c-3 64-45 119-108 136-3 1-5 2-8 2-25-15-53-24-84-24-31 0-60 9-85 25-64-14-113-73-114-137-1-34-2-67-2-101 0-31-2-32 14-36 0 0 206-48 374-1 9 4 14 9 14 19-1 39 0 78-1 117z m-353 137c13 10 27 16 42 23-27 27-45 64-47 105-1 0-2 0-3 0-30 0-61 1-92 0-36-1-67-11-93-30-12-10-61-57-63-182v-62c51-16 104-27 158-34 17-2 24 1 23 21-2 65 21 119 75 159z m474 106c-51 31-108 21-163 22-2-41-20-78-47-105 25-11 48-24 66-44 38-40 54-88 50-142-1-13 3-19 18-18 46 3 91 12 134 29 11 4 16 10 16 22-1 39 0 79-2 118-2 52-28 91-72 118z m-320-92c64 1 116 53 116 117 0 65-51 117-116 118-65 0-119-52-119-117 0-64 55-119 119-118z m-204 121c3 0 9 0 15 1 11 3 22 5 30 10 4 50 30 93 69 120 0 3-1 6-1 9-12 59-69 102-126 95-64-8-111-60-108-120 4-65 54-114 121-115z m731 81c-26 19-57 29-93 30-31 1-62 0-92 0-1 0-2 0-3 0-2-41-20-78-47-105 15-7 30-13 42-23 54-39 77-94 75-159-1-20 6-23 24-21 53 7 106 18 157 34v62c-2 125-51 172-63 182z m-188 48c9-5 19-7 31-9 5-2 11-2 14-2 67 1 117 50 121 115 3 60-44 113-108 120-57 7-114-36-126-95 0-3-1-6-1-9 39-27 65-70 69-120z m-261 14c0-2-1-4-1-6 46-26 78-74 80-131 1 0 3-1 5-1 75-21 149 36 149 114-1 61-46 110-109 116-55 6-111-35-124-92z m-21 4c3 21 12 39 23 60-59 5-115 4-176 0 16-22 23-43 26-64 21 10 44 15 69 15 20 0 40-4 58-11z m-65 71l1 0c41 0 82 21 106 57 10 15 17 31 20 48 1 8 2 16 2 24 0 62-45 114-104 126l-2 0h-1c-7 1-15 2-22 2-71 0-128-57-128-128s57-129 128-129z" />
<glyph glyph-name="users" horiz-adv-x="1000" unicode="&#xed0d;" d="M624 301c-4 1-7 2-11 3-30-19-66-30-104-30-39 0-75 11-106 31-79-18-140-92-142-171-1-42-2-83-2-125 0-39-3-40 17-46 0 0 256-59 465 0 12 4 18 10 18 24-1 48 0 96-1 144-4 81-57 148-134 170z m-306 1c16 12 34 20 53 29-34 33-56 79-58 130-2 0-3 0-4 0-38 0-76 1-114 0-46-1-85-14-116-38-15-11-77-70-79-226v-77c64-20 129-34 196-42 22-3 30 1 30 26-3 81 26 149 92 198z m680-15c-3 65-35 114-90 147-63 39-134 26-203 27-2-51-24-97-58-131 32-13 59-30 83-54 47-49 66-109 62-176-1-17 3-25 22-23 57 4 113 15 166 36 14 5 20 12 20 27-1 49 0 99-2 147z m-488 32c80 1 145 67 145 147 0 80-64 145-144 146-82 0-148-65-149-146 0-80 68-148 148-147z m-253 151c3 0 10 0 17 2 14 3 28 6 39 12 4 62 37 116 85 149 0 3-1 7-1 11-15 73-86 127-157 119-79-10-138-76-134-150 4-81 67-142 151-143z m448 8c2-1 5-2 7-2 93-26 185 45 184 142 0 76-56 136-134 145-69 7-139-45-155-115 0-3-1-5-1-7 57-33 96-93 99-163z" />
<glyph glyph-name="search-user" horiz-adv-x="1000" unicode="&#xed1a;" d="M905 37c-6 7-7 18-2 26 20 34 32 73 32 115 0 124-101 224-224 224s-223-100-223-224 100-223 223-223c46 0 88 14 123 37 8 5 19 5 26-2l74-75c1 0 2-1 2-1 1-1 7-7 13-13s17-6 24 0l22 23c7 6 7 17 0 24l-90 89z m-59 37c-7-9-15-18-24-26-30-25-69-40-111-40-94 0-170 76-170 170s76 171 170 171c95 0 171-76 171-171 0-39-13-75-36-104z m-469 281c124 0 224 100 224 224 0 124-100 225-224 225s-225-101-225-225 101-224 225-224z m93-43c5 8 2 11-7 8-27-11-56-16-86-16-68 0-132 27-179 77l-3 3s-4 2-6 1l-4-2c-100-58-165-159-185-285l0-2s0-3 1-4l2-2c99-120 232-186 374-186 59 0 117 12 172 34 9 4 9 11 1 16-69 50-115 132-115 224 0 49 13 94 35 134z" />
<glyph glyph-name="add-users" horiz-adv-x="1000" unicode="&#x13ab7;" d="M818 302c81-14 176-52 182-113l0-6 0-229c0-10-8-19-18-20l-3-1-106 0c1 5 1 9 2 14l0 7 0 229c0 50-23 88-57 119z m-68 340c69 0 125-56 125-125 0-67-52-122-118-125l-7 0c-13 0-26 2-38 6 23 34 38 74 38 119 0 44-14 85-38 119 12 4 25 6 38 6z" />
<glyph glyph-name="add-users" horiz-adv-x="1000" unicode="&#x13ab6;" d="M542 308c81 0 242-39 249-119l1-6 0-250c0-21-17-39-38-41l-4 0-417 0c-21 0-39 16-41 37l0 4 0 250c0 84 166 125 250 125z m-375 250c21 0 39-16 41-37l0-4 0-84 84 0c23 0 41-18 41-41 0-22-16-40-37-42l-4 0-84 0 0-83c0-22-16-40-37-42l-4 0c-22 0-40 17-42 37l0 5 0 83-83 0c-23 0-42 19-42 42 0 21 17 39 37 41l5 0 83 0 0 84c0 23 19 41 42 41z m375 84c69 0 124-56 124-125 0-67-52-122-118-125l-6 0c-69 0-125 56-125 125 0 69 56 125 125 125z" />
<glyph glyph-name="manage-user" horiz-adv-x="1000" unicode="&#x13b5e;" d="M906 66c2 6 4 12 6 18 1 6 2 13 3 19l48 22c5 2 7 7 6 12l-24 75c-2 5-7 8-11 7l-54-8c-8 10-18 19-28 26l4 53c0 4-3 9-8 10l-79 18c-4 1-9-1-11-6l-19-49c-13-2-26-5-38-11l-44 31c-4 2-10 2-13-2l-55-57c-3-3-3-9 0-12l34-42c-2-6-4-12-6-18-1-6-2-13-3-19l-48-22c-5-2-7-7-5-12l24-75c1-4 6-7 11-7l53 8c8-10 18-19 29-26l-5-53c0-4 3-9 8-10l79-18c5-1 10 1 11 6l19 49c13 2 26 6 38 11l44-31c4-2 10-2 13 2l55 57c3 3 3 9 0 13l-34 41z m-162-10c-39 9-63 47-54 86 9 39 47 63 86 54 39-9 63-48 54-86-9-39-48-63-86-54z" />
<glyph glyph-name="manage-user" horiz-adv-x="1000" unicode="&#x13b5d;" d="M553 340c14 10 31 11 46 3l3-2 42-29-92-91 39-40-2-4 0 0-1-4-52-49 33-124 19-7 1-4 0 0 2-4-28-41-487 0c-44-2-44 55-42 76l0 5 0 185c0 13 5 24 15 32l3 3 138 96c15 11 35 10 50-1 45-33 99-52 156-52 58 0 111 19 157 52z m-157 510c109 0 197-67 197-206 0-138-88-251-197-251-109 0-197 113-197 251 0 139 88 206 197 206z" />
<glyph glyph-name="user-notes" horiz-adv-x="1000" unicode="&#x13bd8;" d="M57 86c-18 0-33 15-33 33l0 648c0 18 15 33 33 33l648 0c18 0 33-15 33-33l0-648c0-17-13-31-29-33l-4 0-648 0z" />
<glyph glyph-name="user-notes" horiz-adv-x="1000" unicode="&#x13bd7;" d="M811 697l4 0c13 0 25-9 29-22l1-3 113-625c3-17-7-33-23-38l-4-1-624-112c-1 0-3 0-4 0l-4 0c-14 1-26 10-30 23l-1 4-18 100 528 0c17 0 31 13 33 29l0 4 0 641 4 0-4 0z" />
<glyph glyph-name="users" horiz-adv-x="1000" unicode="&#x13bda;" d="M569 498l140 0c78 0 137-57 141-133l0-7 0-455-130 0 0 54c2 218 11 395-144 401l-7 0-94 0c49 27 81 74 92 131l2 9 140 0-140 0z m0 352c79 0 140-61 140-141 0-77-57-136-133-140l-7 0-5 0c-18 63-66 113-128 133l-8 3 0 4c0 80 61 141 141 141z" />
<glyph glyph-name="users" horiz-adv-x="1000" unicode="&#x13bd9;" d="M241 311l281 0c77 0 137-57 140-133l1-8 0-304-563 0 0 304c0 78 57 137 133 141l8 0 281 0-281 0z m140 352c80 0 141-61 141-141 0-80-61-141-141-141-79 0-140 61-140 141 0 80 61 141 140 141z" />
<glyph glyph-name="user-alt-1" horiz-adv-x="1000" unicode="&#xecfb;" d="M400 0c0 37 0 74 0 111 0 4-1 7-5 9-30 20-61 41-91 61-3 2-4 4-5 7-9 73-18 146-27 219-2 13-3 26-5 39 0 3 1 4 4 5 33 8 66 15 100 20 40 7 80 12 121 12 29 1 58-1 86-5 51-6 101-15 151-27 4-1 5-2 4-5-5-41-10-83-15-124-6-44-12-88-17-132 0-5-2-8-7-11-30-20-60-40-90-60-3-2-4-4-4-7 0-75 0-149 0-223 0-5-1-7-4-9-24-13-49-24-76-28-23-4-45-1-67 6-17 6-33 13-49 23-3 1-4 4-4 7 0 37 0 75 0 112z m-67 683c0 93 75 167 167 167 92 0 167-75 167-167 0-92-75-166-167-166-92 0-167 74-167 166z" />
<glyph glyph-name="user-alt-2" horiz-adv-x="1000" unicode="&#xecfc;" d="M524-150c-106 0-192 21-273 66-94 54-125 120-105 235 20 125 84 223 185 298 15 12 24 10 36-3 37-40 75-79 111-119 12-14 19-16 32 1 31 39 65 77 97 117 10 13 18 17 34 7 123-78 192-189 215-332 23-145-69-200-171-240-56-22-115-31-161-30z m-33 609c-105 0-194 91-194 197 1 104 88 192 193 194 106 2 198-87 199-192 0-110-87-198-198-199z" />
<glyph glyph-name="close-circled" horiz-adv-x="1000" unicode="&#xeedd;" d="M703 501c6 6 6 16 0 22l-33 34c-6 6-16 6-22 0-46-47-91-93-137-140-6-6-16-6-22 0-46 47-91 93-137 140-6 6-16 6-22 0-11-12-22-23-33-35-6-6-6-16 0-22 45-45 90-92 137-139 6-6 6-16 0-22-46-47-92-93-137-140-6-6-6-16 0-22l33-34c7-6 16-6 22 0l137 139c6 6 16 6 22 0 46-46 91-92 137-139 6-6 16-6 22 0 11 12 22 23 33 34 6 6 6 16 0 22-45 46-90 93-136 140-6 6-6 16 0 22 45 47 91 93 136 140z m-203 287c-242 0-437-196-437-438s195-438 437-438 438 196 438 438-196 438-438 438z m0-807c-203 0-369 166-369 369s166 369 369 369 369-165 369-369-165-369-369-369z" />
<glyph glyph-name="close-line-circled" horiz-adv-x="1000" unicode="&#xeede;" d="M682 558l-182-182-182 182-26-26 182-182-182-182 26-26 182 182 182-182 26 26-182 182 182 182-26 26z m127 101c-85 86-188 129-309 129s-224-43-309-129-128-188-128-309 42-224 128-309 188-129 309-129 224 43 309 129 129 188 129 309-43 224-129 309z m-25-593c-77-77-172-116-284-116s-207 39-284 116-116 172-116 284 39 207 116 284 172 116 284 116 207-39 284-116 116-172 116-284-39-207-116-284z" />
<glyph glyph-name="close-line-squared-alt" horiz-adv-x="1000" unicode="&#xeedf;" d="M63 720v-740c0-37 30-67 67-67h740c37 0 67 30 67 67v740c0 37-30 68-67 68h-740c-37 0-67-31-67-68z m780-780h-686c-37 0-67 30-67 67v686c0 37 30 67 67 67h686c37 0 67-30 67-67v-686c0-37-30-67-67-67z m-573 148l230 229 230-229 33 32-230 230 230 230-33 33-230-230-230 230-32-33 229-230-229-230 32-32z" />
<glyph glyph-name="close-line-squared" horiz-adv-x="1000" unicode="&#xeee0;" d="M63 788v-876h875v876h-875z m847-848h-820v820h820v-820z m-640 148l230 229 230-229 33 32-230 230 230 230-33 33-230-230-230 230-32-33 229-230-229-230 32-32z" />
<glyph glyph-name="close-line" horiz-adv-x="1000" unicode="&#xeee1;" d="M763 650l37-37-262-263 262-262-37-38-263 263-262-263-38 38 263 262-263 263 38 37 262-262z" />
<glyph glyph-name="close-squared-alt" horiz-adv-x="1000" unicode="&#xeee2;" d="M756 528c9 8 9 17 0 26l-51 52c-3 3-8 5-13 5-3 0-5-1-9-2-3-2-5-4-8-6l-152-151c-13-13-33-13-46 0l-155 154c-4 4-8 5-14 5-2 0-4 0-7-2-4-1-7-4-10-6l-47-49c-9-9-9-18 0-27l156-154c13-13 13-34 0-46l-156-155c-3-4-5-8-5-14 0-5 2-10 5-13l52-51c4-3 8-5 14-5 4 0 8 2 12 5l155 155c13 13 33 13 46 0l155-155c4-4 8-5 14-5 4 0 8 2 12 5l52 51c3 3 5 8 5 13 0 6-2 10-5 14l-157 156c-12 13-12 34 1 46l156 154z m150 228c-22 21-48 32-78 32h-656c-30 0-56-11-77-32s-32-48-32-78v-656c0-30 10-56 32-77s47-32 77-32h656c30 0 56 10 78 32 21 21 32 47 32 77v656c0 30-11 56-32 78z m-23-734c0-15-6-28-16-39-11-10-24-16-39-16h-656c-15 0-28 6-38 16-11 11-17 24-17 39v656c0 15 6 28 17 39 10 10 23 16 38 16h656c15 0 28-6 39-16 10-11 16-24 16-39v-656z" />
<glyph glyph-name="ui-close" horiz-adv-x="1000" unicode="&#xec4f;" d="M981 104l-246 246 246 246c26 26 25 68 0 94l-141 141c-26 25-68 25-94 0l-246-247-246 247c-26 25-68 25-94 0l-141-141c-25-26-25-68 0-94l247-246-247-246c-25-26-25-68 0-94l141-141c26-25 68-25 94 0l246 247 246-247c26-25 68-25 94 0l141 141c26 26 26 68 0 94z" />
<glyph glyph-name="close" horiz-adv-x="1000" unicode="&#xeee4;" d="M710 643c-65-65-129-131-194-197-9-9-23-9-31 0-65 66-130 132-195 197-8 9-22 9-31 0-15-16-31-32-47-48-8-9-8-23 0-32 63-64 128-130 194-197 9-9 8-23 0-32-65-66-130-132-195-198-8-9-8-23 0-31l48-48c9-9 23-9 31 0l195 197c8 9 22 9 31 0 64-66 129-131 194-197 8-9 22-9 31 0 16 16 31 32 47 48 9 9 9 23 0 32-63 65-128 130-194 197-8 9-8 23 0 32 65 66 130 132 195 198 8 9 8 23 0 32l-48 48c-9 8-23 8-31-1z" />
<glyph glyph-name="close-squared" horiz-adv-x="1000" unicode="&#xeee3;" d="M63 788v-876h875v876h-875z m49-826v776h776v-776h-776z m644 592l-50 52c-4 3-9 5-14 5-4 0-8-2-14-5l-178-177-178 177c-4 3-8 5-14 5-3 0-8-2-13-5l-51-52c-9-9-9-18 0-27l180-177-180-178c-3-4-5-8-5-14 0-5 2-10 5-13l52-51c4-3 8-5 14-5 4 0 8 2 12 5l178 179 178-179c4-3 8-5 14-5 4 0 8 2 12 5l52 51c3 3 5 8 5 13 0 6-2 10-5 14l-180 179 180 177c9 8 9 17 0 26z" />
<glyph glyph-name="location-alt" horiz-adv-x="1000" unicode="&#x13b55;" d="M494-107c-282 0-461 91-461 212 0 114 162 194 335 208l0-97c-113-9-224-51-224-106 0-71 146-118 350-118 203 0 350 47 350 118 0 55-111 97-224 106l0 97c173-14 335-94 335-208 0-121-179-212-461-212z" />
<glyph glyph-name="location-alt" horiz-adv-x="1000" unicode="&#x13b54;" d="M495 850c98 0 176-81 176-180 0-80-52-149-125-172l0 0 0-258c0-91-31-165-51-165-20 0-52 74-52 165l0 0 0 259c-72 23-124 91-124 171 0 99 78 180 176 180z m-50-67c-32 0-60-28-60-62 0-33 28-61 60-61 33 0 60 28 60 61 0 34-27 62-60 62z" />
<glyph glyph-name="location" horiz-adv-x="1000" unicode="&#x13b57;" d="M509 850c126 0 228-102 228-227 0-61-78-250-235-568l-29 64c-127 284-191 452-191 504 0 125 102 227 227 227z m-7-114c-62 0-113-50-113-113 0-63 51-114 113-114 63 0 114 51 114 114 0 63-51 113-114 113z" />
<glyph glyph-name="location" horiz-adv-x="1000" unicode="&#x13b56;" d="M943 45c0-153-274-176-438-176-164 0-438 23-438 176 0 113 153 155 299 169l24-87c-137-12-236-44-236-82 0-49 157-88 351-88 194 0 351 39 351 88 0 38-99 70-236 82l25 87c145-14 298-56 298-169z" />
<glyph glyph-name="location-arrow" horiz-adv-x="1000" unicode="&#xef78;" d="M935 777c-111-286-222-572-334-860-2-5-5-5-7 0-7 16-14 32-20 47-46 108-92 216-138 324-2 5-7 9-11 11-119 47-237 93-356 139-1 1-3 2-5 3-3 1-1 4 4 6 288 113 574 225 859 337 5 2 10 4 10 3 1-1 0-5-2-10z" />
<glyph glyph-name="location-pin" horiz-adv-x="1000" unicode="&#xef79;" d="M481-66c-19 25-38 51-55 76-62 87-118 177-164 273-22 47-43 96-53 147-19 97 4 184 69 257 63 72 144 104 239 100 132-5 247-105 274-235 11-53 8-105-9-157-33-104-84-198-143-288-42-65-88-127-132-190-1-1-2-3-4-4-2-3-12 7-22 21z m165 552c3 75-59 145-134 149-86 5-153-55-157-142-4-75 60-145 136-148 84-4 150 56 155 141z" />
<glyph glyph-name="heart-beat" horiz-adv-x="1000" unicode="&#xec1f;" d="M740 348c-40-33-80-66-125-103-33 48-63 91-98 142-40-71-75-133-114-202-41 63-76 118-112 174-35-15-66-34-103-41-21-4-44-4-68-3 22-38 49-72 79-105 85-92 187-164 296-226 3-2 9-1 12 1 21 12 43 24 64 38 95 60 182 128 255 215 20 25 39 50 55 78-69-5-104 4-141 32z m131 302c-81 83-221 90-311 17-24-20-44-44-60-72-1 2-2 2-2 3-55 91-136 130-240 116-83-12-143-59-177-135-26-59-22-119-1-179 4-13 9-25 15-37 94-10 150 31 208 75 34-45 65-85 100-131 38 72 74 138 114 213 40-66 74-124 113-189 40 32 76 60 119 95 28-55 86-67 157-63 8 17 15 35 20 54 25 88 9 167-55 233z" />
<glyph glyph-name="heart-beat-alt" horiz-adv-x="1000" unicode="&#xec1e;" d="M560 17l-106 320h-104l-67 251-61-251h-70c133-198 384-414 384-414s250 216 382 414h-265l-93-320z m227 760c-86 9-228-44-252-181-25 137-167 190-252 181-105-12-243-58-208-272 7-43 29-92 61-142h66l80 328 88-328h102l87-259 74 259h293v-13c35 55 61 108 68 155 36 214-103 260-207 272z m139-440v13c-3-4-6-8-8-13h8z m-926 26v-26h152c-5 9-11 17-16 26h-136z" />
<glyph glyph-name="heart-eyes" horiz-adv-x="1000" unicode="&#xeafb;" d="M500 850c-276 0-500-224-500-500s224-500 500-500 500 224 500 500-224 500-500 500z m0-933c-238 0-433 195-433 433s195 433 433 433 433-194 433-433-194-433-433-433z m196 300c-4 0-8 0-12-1-13-4-25-10-38-13-41-9-83-11-125-12-41-2-83-1-124 4-24 3-48 8-70 16-6 3-12 4-18 4-7 1-11-3-12-10-2-10 1-20 7-28 26-36 59-66 97-89 30-18 62-29 97-29 23 0 46 4 67 13 42 16 76 42 105 76 12 14 23 29 30 46 2 5 3 10 4 15 0 5-3 8-8 8z m115 256c-14 33-54 51-88 40-10-3-18-7-26-14 0 1 0 1 0 1-6 33-25 53-57 61-25 6-48-1-66-19-15-14-20-32-21-52-1-24 5-46 13-68 15-37 36-69 61-99 0-1 2-2 3-2 8 2 15 3 23 4 34 7 67 17 98 34 19 10 36 23 50 41 17 22 21 47 10 73z m-441-152c1 0 3 1 4 2 24 30 46 62 60 99 8 22 14 44 13 68-1 20-6 38-21 52-18 18-41 25-66 19-32-8-51-28-57-61 0 0 0 0 0-1-8 7-16 11-25 14-35 11-74-7-89-40-11-26-7-51 10-73 14-18 31-31 50-41 31-17 64-27 98-34 8-1 15-2 23-4z" />
<glyph glyph-name="heartbeat" horiz-adv-x="1000" unicode="&#xec20;" d="M918 758h-836c-45 0-82-37-82-82v-653c0-45 37-81 82-81h836c45 0 82 36 82 81v653c0 45-37 82-82 82z m17-735c0-9-8-16-17-16h-836c-9 0-17 7-17 16v653c0 9 8 17 17 17h836c9 0 17-8 17-17v-653z m-113 609h-643c-28 0-49-22-49-49v-237l110 0 46 44c5 4 12 7 18 6 7 0 13-3 18-8l20-23 23 121c2 10 11 18 22 20 10 1 21-5 25-15l29-71 28 59c4 9 14 15 24 14 10-1 19-8 22-18l44-150 16 88c2 10 10 18 20 20 10 2 20-4 25-13l43-78 27 55c4 8 13 13 22 13h159v173c0 28-22 49-49 49z m-136-354c-4-8-12-14-21-14-9 0-18 5-22 13l-32 59-22-122c-2-12-12-20-23-20 0 0-1 0-1 0-11 0-21 7-24 17l-55 189-24-51c-5-9-14-14-23-14-10 0-18 6-22 15l-19 46-18-90c-1-9-8-17-17-19-9-3-19 0-25 8l-36 41-35-32c-5-5-11-7-17-7h-120v-181c0-27 22-49 49-49h643c27 0 49 22 49 49v245h-144l-41-83z" />
<glyph glyph-name="heart-alt" horiz-adv-x="1000" unicode="&#xef44;" d="M495-109c-13 17-24 35-37 51-41 51-90 94-138 137-57 52-114 102-169 156-56 56-103 120-129 197-22 62-30 125-13 190 25 99 110 175 211 190 116 18 224-40 276-145 0-2 1-3 2-4 1-3 2-3 4-2 0 1 1 2 1 3 39 79 100 129 187 146 81 17 154-2 217-55 71-61 100-139 92-231-8-87-44-161-97-229-50-64-109-117-169-170-54-49-108-98-160-149-27-25-50-56-68-88-1-1-1-2-2-3-1-2-5 1-8 6z" />
<glyph glyph-name="heart" horiz-adv-x="1000" unicode="&#xef45;" d="M500 595c16 28 36 52 60 72 90 73 230 66 311-17 64-66 80-145 55-232-19-68-56-126-100-180-73-87-160-155-255-215-21-13-43-26-64-38-3-2-9-3-12-1-109 62-211 134-296 227-52 55-94 117-119 189-21 60-25 120 1 179 34 76 94 123 177 135 104 14 185-25 240-116 0-1 1-1 2-3z" />
<glyph glyph-name="twitter" horiz-adv-x="1000" unicode="&#xed7a;" d="M938 622c-33-15-67-24-104-29 38 22 66 58 79 100-34-21-73-36-114-44-32 35-79 57-131 57-99 0-179-81-179-180 0-14 1-28 4-41-149 8-281 79-370 188-15-27-24-58-24-90 0-63 32-118 80-150-30 1-57 9-81 23v-3c0-87 61-159 144-176-15-4-31-6-48-6-11 0-23 1-33 3 22-71 89-123 167-124-61-49-139-77-223-77-14 0-28 1-43 2 80-51 174-80 276-80 330 0 510 273 510 510 0 8 0 16 0 24 35 25 66 57 90 93z" />
<glyph glyph-name="undo" horiz-adv-x="1000" unicode="&#xee0b;" d="M898 195c-7-29-11-60-22-88-53-151-200-256-358-257-42 0-76 29-80 67-5 41 21 78 60 86 23 4 47 2 70 8 92 25 153 84 171 177 18 99-10 184-93 247-23 17-51 28-80 29-56 1-112 0-169 0 1-7 7-10 11-14 27-28 56-56 83-84 31-32 31-79 0-110-29-29-77-30-108 1-92 92-184 184-276 276-8 7-7 11 0 18 92 91 184 183 275 275 12 12 27 17 41 24h29c1-3 4-3 7-4 58-21 74-86 31-130-9-10-19-20-29-29-22-21-43-43-68-68h23c47 0 94 1 142 0 35-1 69-6 102-19 113-44 182-128 220-240 9-27 11-55 18-82 0-28 0-55 0-83z" />
<glyph glyph-name="folder" horiz-adv-x="1000" unicode="&#xef36;" d="M886 604h-328l-16 34c-14 29-40 47-69 47h-358c-29 0-52-26-52-58v-555c0-31 23-57 52-57h771c28 0 52 26 52 57v475c0 31-24 57-52 57z" />
<glyph glyph-name="folder-open" horiz-adv-x="1000" unicode="&#xef35;" d="M713 469h180v71c0 30-24 55-55 55h-205l-18 33c-14 27-42 45-73 45h-380c-31 0-56-25-56-56v-148h607z m0-37h-650l43-352c0-29 25-53 56-53h676c30 0 55 24 55 53l45 352h-225z" />
<glyph glyph-name="ui-folder" horiz-adv-x="1000" unicode="&#xec5b;" d="M857 7h-754c8 22 16 43 24 64 39 104 78 207 116 311 14 36 56 62 90 62 204-1 408-1 613 0 23 0 41-6 51-28 3-7 5-13 0-25-46-126-94-257-140-384z m-543 686c1-3 1-6 3-9 18-36 36-72 53-108 3-6 7-8 14-8 142 0 285 0 428 0 29 0 55-21 60-51 1-3 0-7 0-11h-12c-174 0-348 0-522 0-60 0-108-26-140-78-11-17-17-38-24-58-37-97-73-194-110-292-3-7-6-9-14-7-24 6-48 25-50 47v526c0 46 34 49 49 49h265z" />
<glyph glyph-name="folder-remove" horiz-adv-x="1000" unicode="&#x13b37;" d="M417 717c37 0 66-30 66-67l0-83 350 0c37 0 67-30 67-67l0-425c0-37-30-67-67-67l-700 0c-36 0-66 30-66 67l0 425 0 150c0 37 30 67 66 67l284 0z m199-416l-232 0c-9 0-17-8-17-18 0-8 6-16 15-17l2 0 232 0c9 0 17 8 17 17 0 10-8 18-17 18z" />
<glyph glyph-name="folder-remove" horiz-adv-x="1000" unicode="&#x13b36;" d="" />
<glyph glyph-name="folder-plus" horiz-adv-x="1000" unicode="&#x13b35;" d="" />
<glyph glyph-name="folder-plus" horiz-adv-x="1000" unicode="&#x13b34;" d="M417 717c37 0 66-30 66-67l0-83 350 0c37 0 67-30 67-67l0-425c0-37-30-67-67-67l-700 0c-36 0-66 30-66 67l0 425 0 150c0 37 30 67 66 67l284 0z m83-300c-8 0-14-5-17-12l0-5-1 0 0-1 0-98-98 0c-9 0-17-8-17-18 0-8 6-16 15-17l2 0 98 0 0-98c0-10 8-18 18-18 9 0 16 6 18 15l0 3 0 98 98 0c9 0 17 8 17 17 0 9-6 17-15 18l-2 0-98 0 0 98c0 10-8 18-18 18z" />
<glyph glyph-name="folder-open" horiz-adv-x="1000" unicode="&#x13b33;" d="M813 683l-625 0c-37 0-72-19-90-51-4-6-4-14 0-21 3-6 10-10 18-10l167 0c44 0 84-28 98-70l13-39c3-9 11-14 20-14l482 0c11 0 21 9 21 20l0 82c0 57-47 103-104 103z" />
<glyph glyph-name="folder-open" horiz-adv-x="1000" unicode="&#x13b32;" d="M938 436l-554 0c-9 0-17 6-19 14l-23 68c-9 25-33 42-59 42l-220 0c-35 0-63-28-63-62 0-57 8-113 25-167l83-274c13-44 54-74 100-74l588 0c44 0 83 27 98 67l90 238c11 28 16 57 16 87 0 34-28 61-62 61z" />
<glyph glyph-name="folder-close" horiz-adv-x="1000" unicode="&#x13b31;" d="M549 588l-19 37c-2 4-2 8 0 12 2 3 6 5 10 6l370 0c29 0 53-24 53-53l0-18c0-4-1-7-4-9-2-2-5-3-8-3-63 0-359 1-359 1-18 0-35 10-43 27z" />
<glyph glyph-name="folder-close" horiz-adv-x="1000" unicode="&#x13b30;" d="M963 508c-5 2-11 3-16 3l-355 0c-37 0-71 21-88 54l-32 64c-2 5-5 9-8 14-19 25-48 40-80 40l-329 0c-15 0-30-6-40-17-11-12-16-27-15-42l48-575c2-28 26-50 54-50l813 0c27 0 50 21 53 49l32 405c2 25-13 48-37 55l0 0z" />
<glyph glyph-name="toggle-off" horiz-adv-x="1000" unicode="&#x13cf8;" d="M267 617c147 0 266-120 266-267 0-147-119-267-266-267-148 0-267 120-267 267 0 147 119 267 267 267z" />
<glyph glyph-name="toggle-off" horiz-adv-x="1000" unicode="&#x13cf9;" d="M1000 350c0 93-70 167-158 167l-451 0c-85 0-154-70-157-159l-1-8c0-93 70-167 158-167l451 0c86 0 154 70 158 160l0 7z" />
<glyph glyph-name="toggle-on" horiz-adv-x="1000" unicode="&#x13cfb;" d="M733 617c148 0 267-120 267-267 0-147-119-267-267-267-147 0-266 120-266 267 0 147 119 267 266 267z" />
<glyph glyph-name="toggle-on" horiz-adv-x="1000" unicode="&#x13cfa;" d="M767 350c0 93-70 167-158 167l-451 0c-86 0-154-70-158-159l0-8c0-93 70-167 158-167l451 0c85 0 154 70 158 160l0 7z" />
<glyph glyph-name="toggle-off" horiz-adv-x="1000" unicode="&#xf011;" d="M753 563h-506c-102 0-184-96-184-213s82-213 184-213h506c102 0 184 95 184 213s-82 213-184 213z m-22-389h-462c-92 0-167 78-167 176s75 176 167 176h462c92 0 167-79 167-176s-75-176-167-176z m-290 176c0-74-60-134-134-134s-134 60-134 134c0 74 60 134 134 134s134-60 134-134z m193 50c-4 7-9 11-15 15-6 4-13 5-21 5s-15-1-21-5c-6-3-11-8-15-15-4-6-6-14-8-22-2-9-3-18-3-28 0-10 1-20 3-28 2-9 4-16 8-23 4-6 9-11 15-14s13-6 21-6 15 2 21 6c6 3 11 8 15 14 4 7 7 14 9 23 2 8 2 18 2 28 0 10 0 19-2 28-2 8-5 16-9 22z m-36-97c-16 0-24 15-24 47s8 47 24 47c8 0 14-4 18-12 4-8 6-20 6-35 0-32-8-47-24-47z m66 115v-136c3-1 7-1 11-1 3 0 7 0 11 1v57h31c1 4 1 8 1 12 0 3 0 7-1 11h-31v32h40c0 4 0 8 0 12 0 4 0 8 0 12h-62v0z m77 0v-136c3-1 7-1 11-1 3 0 7 0 11 1v57h31c1 4 1 8 1 12 0 3 0 7-1 11h-31v32h39c1 4 1 8 1 12 0 4 0 8-1 12h-61v0z" />
<glyph glyph-name="toggle-on" horiz-adv-x="1000" unicode="&#xf012;" d="M753 563h-506c-102 0-184-96-184-213 0-118 82-213 184-213h506c102 0 184 95 184 213 1 117-82 213-184 213z m-22-389h-462c-92 0-167 78-167 176s75 176 167 176h462c92 0 167-79 167-176s-75-176-167-176z m-38 310c-74 0-134-60-134-134 0-74 60-134 134-134s134 60 134 134-60 134-134 134z m-387-78c-4 6-8 11-14 14-6 4-13 6-22 6s-15-2-21-6c-6-3-11-8-15-14-3-7-6-14-8-23-2-9-3-18-3-28s1-19 3-28c2-9 5-16 8-22 4-7 9-11 15-15s13-5 21-5 16 2 22 5c6 4 10 8 14 15 4 6 7 13 9 22 2 8 3 18 3 28s-1 19-3 28-5 16-9 23z m-36-98c-15 0-23 16-23 47s8 47 23 47c8 0 14-4 18-12 4-8 6-20 6-35 0-31-8-47-24-47z m126 115v-86l-42 86c-3 1-6 1-9 1-3 0-6 0-9-1v-136c3-1 6-1 10-1 3 0 6 0 10 1v87l42-87c3-1 6-1 9-1 3 0 6 0 9 1v136c-3 1-6 1-9 1-3 0-7 0-11-1z" />
<glyph glyph-name="contract-alt" horiz-adv-x="1000" unicode="&#x13af9;" d="M347 682l-61-60-90 91c-16 16-42 16-59 0-16-16-16-43 0-59l91-90-60-61c-13-13-4-35 15-35l178 0c12 0 21 9 21 21l0 178c0 19-22 28-35 15l0 0z m306-664l61 60 90-91c16-16 43-16 59 0 16 17 16 43 0 59l-91 90 60 61c13 13 4 35-15 35l-178 0c-12 0-21-9-21-21l0-178c0-19 22-28 35-15l0 0z" />
<glyph glyph-name="contract-alt" horiz-adv-x="1000" unicode="&#x13af8;" d="M832 503l-60 61 91 90c16 16 16 43 0 59-16 16-43 16-59 0l-90-91-61 60c-13 13-35 4-35-15l0-178c0-12 9-21 21-21l178 0c19 0 28 22 15 35l0 0z m-664-306l60-61-91-90c-16-16-16-43 0-59 16-16 43-16 59 0l90 91 61-60c13-13 35-4 35 15l0 178c0 12-9 21-21 21l-178 0c-19 0-28-22-15-35z" />
<glyph glyph-name="rounded-right" horiz-adv-x="1000" unicode="&#xeaa0;" d="M420 64l251 251c10 10 14 23 14 35s-4 25-14 35l-251 251c-19 19-50 19-69 0l-22-22c-19-19-19-50 0-69l160-160c10-10 15-22 15-35s-5-25-15-35l-160-160c-19-19-19-50 0-69l22-22c19-19 50-19 69 0z" />
<glyph glyph-name="simple-right" horiz-adv-x="1000" unicode="&#xeab8;" d="M393 50l300 300-300 300-85-85 214-215-215-215z" />
<glyph glyph-name="rounded-left" horiz-adv-x="1000" unicode="&#xea9d;" d="M649 64l22 22c19 19 19 50 0 69l-160 160c-10 10-15 22-15 35s5 25 15 35l160 160c19 19 19 50 0 69l-22 22c-19 19-50 19-69 0l-251-251c-9-10-14-22-14-35s4-25 14-35l251-251c19-19 50-19 69 0z" />
<glyph glyph-name="simple-left" horiz-adv-x="1000" unicode="&#xeab5;" d="M607 650l-300-300 300-300 86 85-215 215 215 215z" />
<glyph glyph-name="share-alt" horiz-adv-x="1000" unicode="&#x13bad;" d="M781 169c72-1 132-55 140-126 8-72-37-138-107-155-11-3-22-5-33-5-4 0-8 1-12 1l-7 1-7 0c-23 5-45 15-63 30l-13 12c-16 16-29 36-36 57l-2 9-2 3c-1 3-1 6-1 9 0 6 0 12 0 17 0 2 0 3 0 4 0 24 6 47 18 68 25 46 73 75 125 75z m-571 333c60 0 114-39 133-96 19-55 3-116-40-154l-14-11 0 0-4-3-7-4c-4-2-9-6-13-8l-4 0-4 0c-15-6-31-9-47-9-79 0-143 64-143 143 0 78 64 142 143 142z m607 330c64-16 109-74 108-140-1-66-47-123-111-138-11-2-22-4-33-4-4 0-8 1-12 2l-7 1-7 0c-23 5-44 15-63 30l-6 6-7 5c-16 16-29 36-36 57l-2 9-2 3c-1 3-1 6-1 9 0 6 0 11 0 17 0 1 0 3 0 4 0 24 6 47 18 68 31 58 97 87 161 71z" />
<glyph glyph-name="share-alt" horiz-adv-x="1000" unicode="&#x13bac;" d="M379 308l274-159c-16-18-29-39-38-62l-3-10-274 160c17 18 30 39 38 62l3 9z m-41 174l273 159c7-24 19-45 35-64l6-7-273-159c-7 23-19 45-34 63l-7 8 273 159-273-159z" />
<glyph glyph-name="share" horiz-adv-x="1000" unicode="&#xefe5;" d="M752 251c-58 0-110-29-140-74l-214 119c12 23 19 50 19 78 0 28-7 54-19 77l163 71c31-44 82-73 139-73 94 0 170 76 170 169s-76 170-170 170-169-76-169-170c0-19 3-37 9-55l-169-73c-31 33-75 54-123 54-94 0-170-76-170-170 0-93 76-169 170-169 48 0 91 20 122 53l221-123c-5-16-8-34-8-53 0-94 76-169 169-169s169 76 169 169-75 169-169 169z" />
<glyph glyph-name="eye-alt" horiz-adv-x="1000" unicode="&#xef21;" d="M473 684h54c3-1 6-2 9-2 39-3 77-12 113-26 130-47 235-128 322-234 39-48 38-97-1-145-54-67-118-123-190-169-59-38-122-67-192-82-20-4-41-7-61-10h-54c-3 1-7 2-10 2-33 3-66 10-98 21-137 46-247 131-338 241-15 18-25 39-27 62-2 34 12 61 33 86 55 66 119 121 192 167 61 38 125 67 196 81 17 3 35 5 52 8z m-182-334c0-115 94-208 208-209 115 0 209 94 209 209 0 114-94 208-208 208-115 0-209-93-209-208z m248 118c-41-35-51-72-26-107 24-36 61-40 111-13 5-42-31-96-77-114-53-22-114-4-147 41-35 46-34 108 2 152 33 42 94 60 137 41z" />
<glyph glyph-name="eye-open" horiz-adv-x="1000" unicode="&#xe80b;" d="M462 650c0 15-1 30 0 46 0 24 17 41 39 41 23 0 40-18 41-41 0-31 0-62-1-93 0-8 1-12 11-13 8 0 16-3 24-5 6-2 9 0 10 6 9 29 19 57 28 86 7 22 27 34 48 28 22-6 35-27 28-50-9-30-19-60-29-90-2-7-2-10 5-13 8-3 15-8 23-12 12-7 12-7 19 5 16 25 31 49 47 74 17 25 54 23 68-4 7-14 6-28-3-41-16-26-32-53-49-79-4-5-4-9 2-13 8-6 16-12 24-20 4-4 7-4 11 1 19 22 38 44 58 65 17 19 41 22 58 6 18-16 18-40 1-58-19-23-39-45-59-67-6-6-6-10 0-18 24-27 45-56 60-90 8-16 8-32 1-49-19-42-48-77-79-110-51-55-109-101-176-135-59-29-121-47-187-44-56 2-108 17-157 43-100 51-181 126-243 220-6 9-12 19-17 29-7 15-7 30 0 45 18 36 41 67 67 97 6 7 6 10 0 16-20 22-40 44-59 67-12 14-12 32-2 47 10 14 28 21 44 16 9-3 16-9 23-16 16-20 34-38 50-58 6-7 9-6 16 0 6 6 14 12 22 18 5 4 6 7 2 12-16 25-31 50-47 75-16 26-3 56 26 62 15 4 31-4 41-18 15-24 30-49 45-73 4-7 7-7 14-3 9 5 18 10 28 15 5 2 6 4 4 10-9 29-18 57-27 86-7 22 3 45 25 52 21 7 42-4 50-27 9-28 19-56 27-84 2-7 5-8 12-7 8 3 17 4 25 5 6 1 8 3 8 9-1 16 0 32 0 49z m-193-370c0-126 101-229 224-229 131-1 233 100 233 230 0 123-103 226-226 226-128 0-230-100-231-227z m100-1c2 75 59 130 134 128 68-1 124-61 122-131-1-69-60-130-137-125-65 4-119 59-119 128z" />
<glyph glyph-name="eye" horiz-adv-x="1000" unicode="&#xef24;" d="M497 586c138-2 256-42 354-128 35-30 62-65 86-103 1-3 1-8-1-10-78-126-196-201-352-224-154-23-293 12-413 103-45 33-80 75-107 121-2 3-2 8 0 10 77 126 196 199 351 225 10 1 20 3 30 3 18 2 36 2 52 3z m88-370c94 18 171 60 229 128 4 6 2 9-1 13-35 42-79 74-131 97-30 14-63 24-100 31 57-33 88-77 88-135-1-59-31-102-85-134z m-170 0c-54 32-84 75-85 134 0 58 31 102 84 135-20-5-40-10-59-16-68-23-124-60-168-112-4-5-5-9 0-14 9-8 16-18 24-26 56-53 125-86 204-101z m26 158c22 1 40 17 40 37 0 20-19 37-41 37-22 0-41-17-40-37 0-21 18-37 41-37z" />
<glyph glyph-name="file-alt" horiz-adv-x="1000" unicode="&#xeb08;" d="M827 640c-55 56-110 112-167 165-13 13-28 25-45 34-14 7-28 11-44 11l-298 0c-81 0-142-52-156-132-1-2-2-3-2-5v-726c4-5 2-11 4-17 15-62 63-108 127-118 2 0 4-1 6-2h495c16 5 32 7 47 14 49 24 79 63 88 117 1 2 0 5 3 6v562c-8 38-33 65-58 91z m-19-151c-1-159-1-318-1-478 0-34-12-60-43-76-13-7-26-8-41-8-149 0-298 0-448 0-51 0-83 32-83 84 0 113 0 227 0 340 0 113 0 227 0 340 0 33 14 59 44 74 12 7 25 8 38 8l267 0c15 0 25-6 30-21 5-11 5-23 5-36 1-42 1-85 1-128 0-31 14-45 45-45l127-1c3 0 6 0 9 0 48-4 50-21 50-53z m-92-103c-145 0-289 0-433 0-11 0-15-1-14-4 0-10 1-19 0-29-1-5 4-5 17-5 71 0 142 0 213 0 72 0 145 0 217 0 11 0 14 0 14 4-1 10-1 20 0 30 0 3-4 4-14 4z m-438 45c39 0 78 0 117 0 40 0 80 0 119 0 6 0 8 1 8 8 0 17 0 34 0 51 0 7-2 8-8 8-79 0-158 0-238 0-6 0-8-1-7-8 0-16 0-33-1-49 0-9 3-10 10-10z m438-111c-145 0-289 0-433 0-11 0-15-1-14-5 0-9 1-19 0-28-1-5 4-6 17-6 71 0 142 0 213 0 72 0 145 0 217 0 11 0 14 1 14 5-1 10-1 19 0 29 0 4-4 5-14 5z m0-69c-145 0-289 0-433 0-11 0-15-1-14-5 0-9 1-19 0-28-1-5 4-6 17-6 71 1 142 0 213 0 72 0 145 1 217 0 11 0 14 1 14 5-1 10-1 20 0 29 0 4-4 5-14 5z m-128-99c-84 0-167 0-250 0-7 0-9-1-9-4 1-10 1-19 0-29 0-5 3-5 11-5 41 0 81 0 122 0 42 0 84 0 126 0 6 0 8 0 8 4 0 10 0 20 0 30 0 3-2 4-8 4z m-283 0c-12 0-24 0-35 0-1 0-1-1-1-4 0-10 0-19 0-29 0-5 0-5 1-5 6 0 11 0 17 0 6 0 12 0 18 0 0 0 1 0 1 4 0 10 0 20 0 30 0 3-1 4-1 4z m283-73c-84 0-167 0-250 0-7 0-9-1-9-5 1-9 1-18 0-28 0-5 3-6 11-6 41 1 81 1 122 1 42 0 84 0 126-1 6 0 8 1 8 5 0 10 0 20 0 30 0 3-2 4-8 4z m-283 0c-12 0-24 0-35 0-1 0-1-1-1-5 0-9 0-18 0-28 0-5 0-6 1-6 6 1 11 1 17 1 6 0 12 0 18-1 0 0 1 1 1 5 0 10 0 20 0 30 0 3-1 4-1 4z" />
<glyph glyph-name="ipad" horiz-adv-x="1000" unicode="&#xea3a;" d="M836 850h-672c-22 0-39-18-39-40v-920c0-22 17-40 39-40h672c22 0 39 18 39 40v920c0 22-17 40-39 40z m-337-978c-12 0-22 10-22 22s10 23 22 23 22-10 22-23-10-22-22-22z m299 63h-601v830h601v-830z" />
</font>
</defs>
</svg>
